<?xml version="1.0" standalone="no"?><!DOCTYPE svg PUBLIC "-//W3C//DTD SVG 1.1//EN"
        "http://www.w3.org/Graphics/SVG/1.1/DTD/svg11.dtd">
<svg class="icon" width="200px" height="200.00px" viewBox="0 0 1024 1024" version="1.1"
     xmlns="http://www.w3.org/2000/svg">
    <path d="M563.2 134.5536c-97.28-50.688-193.8432-40.96-280.8832 24.8832-67.3792 51.2-88.3712 124.0064-75.776 204.8 9.216 60.1088 76.3904 102.4 136.8064 90.9312 51.2-9.6256 80.384-62.2592 67.9936-122.88-12.9024-62.2592-52.736-83.7632-126.8736-68.8128-8.9088 1.8432-18.0224 2.4576-43.8272 5.8368 22.2208-35.2256 33.28-64.512 53.6576-84.992 98.5088-95.3344 223.1296-59.5968 260.4032 72.6016 60.416 214.2208-53.6576 484.0448-249.9584 588.8-44.032 23.4496-90.5216 42.496-135.8848 63.5904l1.536 12.288c26.8288-4.8128 53.8624-8.4992 80.2816-14.6432C506.4704 847.4624 696.32 634.88 708.608 391.5776 714.24 276.48 665.6 187.904 563.2 134.5536z" fill="#ffffff"/>
    <path d="M804.864 476.4672m-50.176 0a50.176 50.176 0 1 0 100.352 0 50.176 50.176 0 1 0-100.352 0Z" fill="#ffffff"/>
    <path d="M804.864 227.6352m-50.176 0a50.176 50.176 0 1 0 100.352 0 50.176 50.176 0 1 0-100.352 0Z" fill="#ffffff"/>
</svg>