<?xml version="1.0" standalone="no"?><!DOCTYPE svg PUBLIC "-//W3C//DTD SVG 1.1//EN"
        "http://www.w3.org/Graphics/SVG/1.1/DTD/svg11.dtd">
<svg class="icon" width="200px" height="200.00px" viewBox="0 0 1024 1024" version="1.1"
     xmlns="http://www.w3.org/2000/svg">
    <path d="M108.5 396h819v25h-819zM108.5 200h819v24h-819zM108.5 982h819v25h-819zM108.5 764h819v24h-819zM108.5 591h819v24h-819z" fill="#ffffff"/>
    <path d="M781.5 414c9.33 8.67 20.67 13 34 13s24.67-4.5 34-13.5 14-20 14-33-4.67-24-14-33-20.67-13.5-34-13.5-24.67 4.5-34 13.5-14 20-14 33 4.67 24.17 14 33.5zM781.5 644c9.33 8.67 20.67 13 34 13s24.67-4.5 34-13.5 14-20 14-33-4.67-24-14-33-20.67-13.5-34-13.5-24.67 4.5-34 13.5-14 20-14 33 4.67 24.17 14 33.5zM460.5 254c-60.67 0-112.33 22-155 66-43.33 44-65 96.67-65 158 0 26 10.33 49.33 31 70 22.67 18 47.67 27 75 27 26 0 48.67-9 68-27 18-20.67 27-44 27-70 0-24-9.33-45.67-28-65-18.67-18-41-27-67-27-9.33 0-20 2.33-32 7 12-33.33 31-61 57-83 24.67-22 54.33-33 89-33 48.67 0 87.83 21.67 117.5 65s44.5 94 44.5 152c0 38.67-7.67 78-23 118-18 40-37.67 73.67-59 101s-51 56.67-89 88c-39.33 32.67-74 58.33-104 77-45.33 28-83.67 51-115 69-2.67 2.67-4 5.33-4 8 0 8 4 12 12 12 10 0 60.67-22.33 152-67 44.67-22.67 88.33-48.67 131-78 44-29.33 81.33-60.33 112-93 30-32 54.33-69 73-111 19.33-40 29-84.33 29-133 0-72-25-129-75-171-52.67-40-120-60-202-60z" fill="#ffffff"/>
</svg>