<?xml version="1.0" standalone="no"?><!DOCTYPE svg PUBLIC "-//W3C//DTD SVG 1.1//EN"
        "http://www.w3.org/Graphics/SVG/1.1/DTD/svg11.dtd">
<svg class="icon" width="200px" height="200.00px" viewBox="0 0 1024 1024" version="1.1"
     xmlns="http://www.w3.org/2000/svg">
    <path d="M212.732 305.095h626.535v19.125H212.732zM212.732 155.155h626.535v18.36H212.732zM212.732 753.385h626.535v19.125H212.732zM212.732 586.614h626.535v18.36H212.732zM212.732 454.271h626.535v18.359H212.732z" fill="#ffffff"/>
    <path d="M544.742 751.854c55.08-21.42 82.62-62.218 82.62-122.399 0-36.207-10.71-66.938-32.13-92.183s-47.683-37.867-78.795-37.867c-6.632 0-14.022 0.765-22.185 2.295l-19.89-90.271c57.628-53.037 86.445-120.104 86.445-201.195 0-21.933-2.165-42.458-6.503-61.583-4.337-19.125-9.563-34.555-15.683-46.283-6.119-11.727-12.37-20.907-18.742-27.54-6.373-6.632-12.11-9.945-17.212-9.945-16.83 0-33.66 15.43-50.49 46.283-16.83 30.852-25.245 69.232-25.245 115.132 0 34.678 5.867 72.928 17.595 114.75-17.848 17.848-31.748 32-41.692 42.458-9.945 10.458-22.185 24.48-36.72 42.075s-25.498 33.408-32.895 47.431c-7.398 14.022-14.022 30.217-19.891 48.577-5.867 18.36-8.797 36.468-8.797 54.315 0 51.002 17.725 94.859 53.167 131.579 35.442 36.721 77.9 55.08 127.373 55.08 16.83 0 30.853-1.529 42.075-4.59 14.283 66.303 21.42 104.806 21.42 115.515 0 16.831-2.677 31.235-8.033 43.224-5.354 11.986-12.369 20.785-21.037 26.392-8.667 5.607-16.959 9.563-24.862 11.858-7.903 2.295-15.683 3.442-23.333 3.442-20.402 0-35.19-7.139-44.37-21.421 35.703 0 53.55-15.812 53.55-47.43 0-14.282-4.72-26.905-14.153-37.867-9.432-10.963-21.672-16.448-36.72-16.448s-27.792 6.756-38.25 20.273c-10.458 13.517-15.683 27.922-15.683 43.222 0 21.421 9.433 39.65 28.305 54.698C422.855 968.479 445.04 976 470.538 976c27.027 0 49.977-8.668 68.85-26.011 18.872-17.342 28.305-39.527 28.305-66.555-0.001-34.172-7.651-78.029-22.951-131.58z" fill="#ffffff"/>
    <path d="M538.622 182.695c0 23.968-8.545 51.125-25.627 81.473-17.083 30.348-35.32 51.385-54.698 63.112-6.632-15.813-9.945-34.425-9.945-55.845 0-33.147 6.373-63.242 19.125-90.27 12.752-27.028 28.305-40.545 46.665-40.545 16.318 0 24.48 14.022 24.48 42.075zM593.703 655.465c0 38.763-17.848 65.538-53.551 80.324L505.728 562.9c26.01 0 47.178 8.414 63.494 25.245 16.318 16.83 24.481 39.267 24.481 67.32zM524.088 740.38c-21.42 5.607-36.468 8.415-45.136 8.415-35.702 0-67.572-12.492-95.625-37.485-28.052-24.992-42.075-56.098-42.075-93.33 0-62.218 40.033-126.736 120.105-193.545l13.77 81.854c-18.36 6.634-35.06 20.021-50.107 40.163-15.047 20.143-22.568 42.205-22.568 66.173s7.521 43.857 22.568 59.67 30.982 26.01 47.813 30.601l6.12-3.825s-1.53-0.896-4.59-2.678-6.885-4.72-11.475-8.798-9.05-8.667-13.388-13.77-8.033-11.346-11.092-18.742c-3.06-7.398-4.59-14.919-4.59-22.568 0-14.787 5.737-29.069 17.212-42.84 11.475-13.77 24.098-22.186 37.868-25.245l35.19 175.95z" fill="#AAD0EF"/>
</svg>