<?xml version="1.0" standalone="no"?><!DOCTYPE svg PUBLIC "-//W3C//DTD SVG 1.1//EN"
        "http://www.w3.org/Graphics/SVG/1.1/DTD/svg11.dtd">
<svg class="icon" width="200px" height="200.00px" viewBox="0 0 1024 1024" version="1.1"
     xmlns="http://www.w3.org/2000/svg">
    <path d="M686.6798525 553.41421438a155.69336344 155.69336344 0 0 0-57.61534031-61.57364625 196.37595094 196.37595094 0 0 0-97.41830531-19.3517175l-11.65501126-77.40687001s18.25218844-17.59247062 34.74512907-36.72428156c12.09482344-12.97444688 24.4095525-28.36785844 26.388705-30.34701187a229.80164531 229.80164531 0 0 0 63.33289406-167.34837469C626.6455475 48.95012562 574.52785344 31.357655 562.87284219 32.01737281c-37.82381156 2.41896469-68.1708225 72.349035-70.58978813 78.28649344-29.4673875 69.93007031-9.45595312 219.90588-9.45595218 219.90588a675.1110525 675.1110525 0 0 0-67.51110563 59.15468156 536.5703475 536.5703475 0 0 0-58.27505813 71.90922282c-79.82583469 133.92268125-11.87491781 237.05853937-3.0786825 249.81308062 75.64762312 109.95294 205.39209188 84.66376406 205.83190407 87.96235219a197.91529219 197.91529219 0 0 1-4.61802375 103.35576375A153.93411656 153.93411656 0 0 1 534.72488938 933.63148156a99.83727 99.83727 0 0 1-127.76531626 24.4095525c-24.4095525-20.45124656-21.99058781-26.38870594-21.99058875-31.00672875s7.69670625-4.17821156 16.05312938-8.1365175a171.52658625 171.52658625 0 0 0 14.95360031-10.11567093c37.16409375-27.26832938 12.31472906-93.45999937-25.28917594-94.33962188-61.35374063-1.53934125-68.39072906 46.62004687-64.43242312 65.97176344a127.10559844 127.10559844 0 0 0 146.45731594 109.95294c89.94150469-21.99058781 94.11971719-72.78884625 98.29792875-79.60592813 21.99058781-35.40484687 7.25689406-115.89039938 7.25689406-115.89039937s23.09011781-10.99529437 33.20578781-16.49294063a162.9502575 162.9502575 0 0 0 87.96235219-104.67519937 191.75792719 191.75792719 0 0 0-12.75454125-120.28851656zM548.79886531 138.89163031c6.59717625-6.59717625 34.52522344-33.86550563 51.01816407-32.54607 9.45595312 0 35.84465813 20.45124656 15.3934125 89.50169344a163.17016312 163.17016312 0 0 1-54.53665875 71.68931625c-27.92804719 24.18964688-46.40014031 39.80296406-46.8399525 40.46268188s-4.17821156 3.29858813-4.17821157 0c1.09952906 0.43981219-4.39811719-125.12644594 39.14324625-169.10762157z m-85.76329312 626.73175875a207.37124531 207.37124531 0 0 1-73.00875188-64.65232875 177.68395125 177.68395125 0 0 1-16.05312937-96.31877531 250.4727975 250.4727975 0 0 1 32.32616437-87.96235219 479.83463062 479.83463062 0 0 1 91.26094032-103.13585812c1.53934125-1.31943562 9.67585875 64.2125175 9.67585875 64.2125175a161.63082187 161.63082187 0 0 0-84.44385844 70.58978718 170.64696281 170.64696281 0 0 0-21.99058781 91.48084594 106.65435187 106.65435187 0 0 0 30.5669175 64.65232875 150.41562187 150.41562187 0 0 0 68.39072906 29.68729406 143.59854 143.59854 0 0 1-58.93477594-48.819105 114.79086937 114.79086937 0 0 1-6.81708281-71.02959937 96.7585875 96.7585875 0 0 1 29.68729406-47.9394825 184.72093969 184.72093969 0 0 1 54.53665781-27.04842281l36.50437688 235.07938593a189.99868031 189.99868031 0 0 1-91.7007525-8.79623531z m111.93209343 3.29858813l-34.96503562-233.75995032c103.57566938 15.61331719 103.79557594 90.82112813 104.23538719 100.7168925 4.83792937 105.55482281-69.2703525 133.04305781-69.27035156 133.04305782z" fill="#ffffff"/>
</svg>