<?xml version="1.0" encoding="UTF-8" ?>
<!DOCTYPE svg PUBLIC "-//W3C//DTD SVG 1.1//EN" "http://www.w3.org/Graphics/SVG/1.1/DTD/svg11.dtd">
<svg width="512pt" height="512pt" viewBox="0 0 512 512" version="1.1" xmlns="http://www.w3.org/2000/svg">
<g id="#a1d1dfff">
<path fill="#a1d1df" opacity="1.00" d=" M 239.20 28.22 C 241.03 26.75 243.31 26.02 245.48 25.22 C 254.90 25.61 264.33 26.35 273.69 27.71 C 283.47 31.27 294.20 31.49 303.88 34.65 C 310.68 35.18 318.49 36.34 323.17 41.85 C 328.52 47.44 331.92 54.49 335.32 61.35 C 338.54 69.94 340.95 78.82 342.30 87.90 C 342.12 88.41 341.76 89.42 341.58 89.93 C 337.96 80.01 333.03 70.58 327.53 61.58 C 323.14 52.73 311.44 55.31 303.31 54.19 C 294.10 53.75 284.86 53.34 275.65 53.96 C 273.89 54.01 272.09 54.05 270.40 54.57 C 254.90 60.48 239.58 66.88 224.13 72.90 C 219.64 74.12 214.36 77.15 210.10 73.79 C 201.18 67.83 192.55 61.43 183.96 55.02 C 182.60 53.75 180.72 54.60 179.17 54.90 C 179.79 54.16 180.42 53.43 181.06 52.70 C 185.50 51.57 189.40 49.17 193.29 46.84 C 199.60 46.28 204.98 42.33 211.04 40.66 C 220.07 35.73 230.19 32.98 239.20 28.22 Z" />
<path fill="#a1d1df" opacity="1.00" d=" M 371.05 338.05 C 370.83 336.32 372.42 335.18 374.00 335.91 C 373.48 337.14 372.32 337.83 371.05 338.05 Z" />
<path fill="#a1d1df" opacity="1.00" d=" M 307.28 365.45 C 309.10 363.68 311.89 364.18 314.20 364.09 L 314.75 364.58 C 314.49 364.59 313.97 364.62 313.71 364.63 C 311.55 364.69 309.29 364.52 307.28 365.45 Z" />
<path fill="#a1d1df" opacity="1.00" d=" M 257.12 368.02 C 268.46 368.56 279.82 368.41 291.16 368.07 C 290.22 368.33 289.28 368.60 288.34 368.89 C 280.39 369.18 272.43 368.85 264.48 369.13 C 261.95 368.81 259.43 368.51 256.89 368.43 L 257.12 368.02 Z" />
</g>
<g id="#6d81849f">
<path fill="#6d8184" opacity="0.62" d=" M 245.48 25.22 C 259.20 23.14 273.70 25.65 286.97 29.74 C 292.21 29.69 297.39 31.39 302.02 33.73 C 303.79 33.52 305.50 32.76 307.31 32.90 C 306.16 33.50 305.04 34.11 303.88 34.65 C 294.20 31.49 283.47 31.27 273.69 27.71 C 264.33 26.35 254.90 25.61 245.48 25.22 Z" />
<path fill="#6d8184" opacity="0.62" d=" M 442.48 282.18 C 443.14 277.94 444.17 273.73 445.94 269.81 C 445.30 274.05 443.72 278.09 442.48 282.18 Z" />
</g>
<g id="#086092ff">
<path fill="#086092" opacity="1.00" d=" M 310.69 32.58 C 338.04 25.95 366.62 23.37 394.67 26.12 C 399.24 27.15 403.43 29.74 408.24 29.61 C 411.55 29.88 414.78 30.77 417.82 32.11 C 421.82 35.14 426.29 37.66 431.20 38.85 C 449.57 51.55 456.54 74.08 460.67 94.93 C 461.93 100.74 461.13 107.02 463.69 112.51 C 464.00 113.61 464.10 114.75 464.00 115.93 C 464.72 132.96 464.47 150.02 463.99 167.06 C 463.96 167.73 463.90 169.08 463.87 169.76 C 461.62 182.02 460.74 194.49 458.93 206.82 C 455.50 222.32 453.42 238.05 449.44 253.45 C 444.67 268.57 440.41 283.87 436.64 299.27 C 434.60 307.29 430.61 314.73 428.62 322.79 L 428.47 322.40 C 428.17 321.65 427.87 320.91 427.57 320.18 C 424.70 329.73 420.79 338.97 416.03 347.74 C 414.05 349.84 412.75 352.43 412.05 355.22 C 411.66 356.20 411.27 357.19 410.90 358.18 C 410.39 359.56 409.64 360.83 408.93 362.11 C 408.58 363.11 407.93 363.74 406.98 364.00 C 343.50 374.11 280.06 384.68 216.54 394.54 C 215.36 393.69 214.18 392.86 212.99 392.04 C 212.48 390.06 210.53 388.45 208.69 390.09 C 208.48 389.91 208.06 389.57 207.84 389.40 C 207.29 389.14 206.18 388.60 205.63 388.34 C 205.16 388.12 204.23 387.68 203.76 387.46 C 203.31 387.20 202.40 386.67 201.94 386.41 C 200.71 385.59 199.45 384.82 198.18 384.07 C 194.76 380.69 190.45 378.33 185.77 377.22 C 175.90 371.43 166.06 365.35 157.15 358.14 C 151.71 352.71 145.51 347.90 138.93 343.93 C 137.91 343.07 136.90 342.22 135.88 341.36 C 134.52 338.93 132.58 336.82 129.78 336.13 C 129.40 335.97 128.65 335.64 128.28 335.47 C 126.14 334.25 124.59 332.20 123.11 330.27 C 119.81 325.90 115.51 322.42 111.97 318.24 C 110.91 315.08 108.48 312.83 105.75 311.10 C 100.07 302.62 92.53 295.44 87.98 286.21 C 86.91 282.30 84.84 278.76 81.92 275.94 C 77.78 270.15 77.09 262.42 72.44 257.07 C 72.00 256.18 71.61 255.27 71.30 254.33 C 74.54 251.20 75.48 246.76 76.43 242.55 C 82.45 242.93 89.33 247.61 94.66 243.34 C 93.60 240.55 92.33 237.27 89.09 236.51 C 87.18 234.60 85.43 232.54 83.51 230.66 C 82.68 226.00 88.24 223.28 88.19 218.63 C 85.84 217.16 82.22 217.66 80.15 219.52 C 77.52 220.28 74.80 220.69 72.07 220.58 L 71.60 219.60 C 71.12 215.88 67.83 213.55 64.76 211.94 C 63.85 211.12 62.93 210.31 62.04 209.48 C 62.03 189.27 61.83 166.36 76.42 150.48 C 79.29 147.79 81.77 144.72 84.67 142.05 C 90.61 138.48 95.86 133.28 100.22 127.92 L 100.63 127.58 C 102.48 128.02 104.31 126.72 103.79 124.71 C 106.04 123.11 108.31 121.53 110.52 119.87 C 112.77 119.05 115.18 118.15 116.17 115.76 C 117.86 114.37 119.67 113.15 121.47 111.93 C 121.97 111.95 122.98 112.00 123.48 112.03 C 124.87 110.97 126.28 109.93 127.75 108.99 C 127.88 109.82 128.14 111.49 128.28 112.32 C 127.16 114.85 126.17 117.42 125.17 120.00 C 122.07 122.52 121.02 126.51 121.52 130.37 C 119.24 138.79 116.33 147.12 115.25 155.80 C 114.46 156.92 114.25 158.28 114.36 159.62 C 108.14 190.62 106.92 223.22 114.23 254.16 C 114.00 255.89 113.07 258.00 114.29 259.56 C 115.84 259.48 115.09 256.93 115.16 255.92 L 115.59 256.20 C 115.66 258.00 116.02 259.76 116.47 261.51 C 115.81 267.59 119.84 272.96 123.01 277.80 C 123.71 278.74 124.61 279.50 125.45 280.33 C 125.79 280.74 126.49 281.57 126.84 281.99 C 127.34 283.22 127.83 284.46 128.33 285.69 C 128.59 286.23 129.10 287.30 129.36 287.84 C 129.58 287.98 130.04 288.27 130.27 288.41 C 132.35 294.90 136.94 301.14 143.14 304.16 C 143.37 304.42 143.82 304.95 144.05 305.22 C 144.88 307.08 145.99 308.81 147.91 309.70 C 148.18 309.90 148.74 310.28 149.02 310.48 C 147.60 312.70 150.18 314.08 152.17 313.73 C 152.44 313.93 153.00 314.31 153.27 314.51 C 154.09 317.41 156.50 319.08 159.28 319.90 C 159.48 320.12 159.90 320.58 160.10 320.81 C 160.93 323.88 163.65 325.82 166.75 326.12 L 167.18 326.52 C 170.98 332.71 178.45 334.61 183.28 339.74 C 190.19 343.20 196.28 349.00 204.11 350.17 L 204.37 350.53 C 204.99 351.94 206.56 352.58 208.02 352.10 L 208.37 352.59 C 209.74 353.52 211.46 353.54 213.03 353.89 L 212.77 354.41 C 211.49 356.56 214.85 356.29 215.97 355.64 C 216.25 355.80 216.80 356.12 217.08 356.27 C 215.48 358.46 219.66 358.69 220.93 357.93 L 221.89 357.91 L 221.74 358.51 C 221.69 358.81 221.60 359.40 221.55 359.69 C 222.79 360.73 224.52 360.01 225.96 359.94 L 226.65 360.20 C 227.14 362.20 229.26 362.67 230.98 361.94 C 231.32 362.09 232.01 362.41 232.36 362.57 C 232.84 362.83 233.81 363.35 234.30 363.61 C 235.60 363.64 236.91 363.70 238.22 363.79 C 238.62 364.14 239.44 364.84 239.85 365.19 C 241.16 366.74 243.37 366.53 245.07 365.79 L 245.95 366.12 C 246.20 366.30 246.70 366.66 246.95 366.84 C 249.46 368.23 252.42 367.98 255.18 368.00 C 255.67 368.01 256.63 368.02 257.12 368.02 L 256.89 368.43 C 256.71 368.77 256.34 369.45 256.16 369.78 C 265.13 371.02 274.31 371.11 283.31 370.21 C 285.03 369.96 286.69 369.43 288.34 368.89 C 289.28 368.60 290.22 368.33 291.16 368.07 C 292.87 367.99 294.57 367.97 296.29 367.99 C 298.74 367.72 301.92 368.70 303.82 366.71 L 304.15 366.21 C 304.84 366.09 306.23 365.84 306.93 365.72 C 309.21 366.50 312.01 366.66 313.71 364.63 C 313.97 364.62 314.49 364.59 314.75 364.58 C 316.48 364.55 318.39 364.84 319.95 363.86 C 322.84 363.04 325.92 362.40 328.22 360.32 L 328.80 359.99 C 335.10 359.28 342.26 357.15 346.81 352.71 L 347.15 352.00 L 347.91 351.94 C 349.35 352.63 351.06 352.18 351.73 350.67 L 352.09 350.28 C 354.80 349.86 357.56 349.19 359.70 347.35 C 359.49 346.98 359.06 346.22 358.85 345.85 L 359.64 345.80 C 368.30 343.52 377.15 337.55 382.16 329.88 C 384.11 328.02 385.94 326.04 387.78 324.08 C 388.85 323.10 389.89 322.07 390.83 320.96 C 401.87 309.35 407.59 293.69 408.85 277.90 C 409.06 278.43 409.49 279.50 409.70 280.04 C 409.89 277.27 409.86 274.50 409.84 271.73 C 410.83 261.03 410.88 250.27 410.66 239.53 C 410.80 234.22 410.33 228.93 410.19 223.62 C 410.89 225.30 411.54 227.05 411.38 228.91 C 410.91 240.64 410.73 252.42 411.46 264.15 C 413.33 247.96 412.23 231.49 410.39 215.33 C 410.34 214.01 409.30 213.09 408.64 212.06 C 408.22 210.48 407.73 208.92 407.18 207.39 C 408.49 204.65 404.32 205.02 406.10 207.48 C 403.76 212.19 401.91 217.15 400.01 222.05 C 399.70 222.48 399.08 223.33 398.77 223.76 C 397.20 223.98 396.68 224.89 397.24 226.49 C 397.05 226.95 396.67 227.86 396.48 228.32 C 394.18 228.30 393.27 230.76 394.86 232.34 C 392.95 235.25 391.23 238.28 389.57 241.34 C 387.75 243.44 386.14 245.72 384.70 248.10 C 384.52 248.31 384.18 248.75 384.01 248.97 C 381.63 251.51 379.53 254.35 376.71 256.43 C 376.64 256.50 376.50 256.64 376.43 256.71 C 375.04 258.64 373.55 260.51 371.80 262.13 C 366.99 265.57 362.51 269.58 357.25 272.44 C 356.23 272.98 355.20 273.51 354.18 274.03 C 351.93 274.44 348.35 273.39 347.79 276.49 C 347.47 276.56 346.85 276.69 346.54 276.76 C 343.01 276.97 338.92 277.12 336.21 279.66 L 335.72 280.03 C 325.28 280.94 314.83 280.54 304.41 279.67 L 303.83 279.12 C 302.72 277.38 300.51 277.67 298.86 278.33 C 298.48 278.19 297.71 277.92 297.32 277.78 C 293.25 276.50 289.47 274.17 285.15 273.86 L 284.55 273.73 C 284.19 272.20 283.26 271.69 281.77 272.20 L 280.80 272.20 L 280.24 272.16 L 279.62 271.82 C 278.38 267.96 273.90 268.04 271.08 265.93 C 267.12 263.19 263.64 259.75 259.23 257.71 L 258.75 257.43 C 258.28 257.07 257.34 256.36 256.87 256.00 C 255.33 254.20 253.76 252.43 252.18 250.67 C 250.92 248.55 249.57 246.49 248.39 244.33 C 248.13 241.07 245.98 238.39 245.52 235.19 C 249.45 233.06 253.97 230.81 255.67 226.37 L 256.19 224.91 L 256.39 224.69 C 256.46 224.60 256.60 224.44 256.67 224.36 C 257.03 223.73 257.74 222.46 258.10 221.82 C 257.67 217.73 254.52 214.65 253.35 210.79 C 253.09 210.99 252.83 211.20 252.57 211.40 C 252.32 210.73 251.82 209.40 251.57 208.73 C 251.52 208.63 251.43 208.44 251.38 208.34 C 248.21 203.46 245.10 198.56 241.98 193.65 L 242.01 192.60 C 241.66 192.36 240.96 191.89 240.61 191.66 C 240.55 191.57 240.45 191.40 240.39 191.31 C 239.74 190.24 239.12 189.17 238.51 188.09 C 237.62 186.53 236.63 185.04 235.64 183.55 C 236.08 180.78 234.10 179.07 231.99 177.75 C 231.54 177.07 231.08 176.39 230.63 175.71 C 229.76 174.37 228.76 173.13 227.81 171.85 C 226.74 161.98 228.23 152.03 227.95 142.12 C 228.05 140.42 228.28 138.72 228.53 137.04 C 229.95 138.01 231.22 139.19 232.28 140.54 C 234.90 143.83 239.91 142.07 243.38 141.33 C 248.57 140.26 249.48 133.90 248.26 129.58 C 248.94 124.68 250.26 119.87 250.57 114.91 C 249.75 114.04 248.95 113.16 248.05 112.36 C 251.37 110.74 253.71 107.83 256.47 105.48 C 269.36 94.87 284.33 87.19 299.56 80.55 C 301.24 79.52 303.09 80.40 304.24 81.77 C 313.37 91.24 319.27 103.15 325.29 114.69 C 326.94 117.97 328.05 121.70 330.97 124.14 C 321.06 126.48 315.47 138.37 320.24 147.43 C 320.57 148.38 321.16 149.20 321.78 149.99 C 327.64 157.70 339.77 158.53 346.54 151.56 C 346.94 151.21 347.29 150.81 347.57 150.35 C 354.96 141.36 349.81 126.36 338.40 123.76 C 336.35 122.94 334.14 122.69 331.99 122.34 C 334.99 122.11 337.95 122.70 340.94 122.91 C 343.59 111.50 343.52 99.50 342.30 87.90 C 340.95 78.82 338.54 69.94 335.32 61.35 C 335.12 53.30 329.27 45.88 323.89 40.09 C 320.72 35.64 314.77 35.76 310.69 32.58 M 384.25 43.21 L 383.93 44.29 C 383.65 44.41 383.11 44.66 382.83 44.79 C 382.48 45.88 382.18 47.00 381.94 48.12 C 381.03 48.37 380.58 48.98 380.57 49.97 C 374.13 49.93 367.62 49.43 361.23 50.36 C 360.31 57.58 368.33 60.88 370.40 67.05 C 368.15 71.18 366.25 75.56 365.10 80.12 C 362.67 78.15 362.32 83.67 364.93 81.82 L 365.21 82.64 C 365.83 82.59 367.06 82.50 367.67 82.46 L 367.91 81.71 C 368.94 82.76 371.71 81.34 370.83 79.88 C 375.43 79.45 378.86 72.90 384.07 75.57 C 385.32 77.36 386.84 78.94 388.36 80.50 C 387.65 84.06 391.88 85.83 394.06 87.96 C 394.82 87.87 396.34 87.71 397.10 87.63 L 396.28 87.09 L 396.40 86.12 C 399.78 82.58 397.32 74.53 397.80 69.21 C 399.02 68.46 399.62 67.46 399.60 66.21 L 400.17 65.91 C 403.24 65.42 406.50 64.23 408.70 61.97 C 406.75 60.43 404.70 58.61 402.17 58.21 C 399.92 56.34 397.08 55.49 394.52 54.17 C 394.74 52.41 394.60 49.01 392.72 48.37 C 392.35 45.55 391.99 42.72 391.49 39.91 C 392.79 39.26 392.39 35.76 390.68 36.73 C 390.26 36.61 389.43 36.36 389.01 36.24 C 386.92 38.15 385.01 40.42 384.25 43.21 M 420.42 87.74 C 413.04 93.87 405.84 100.25 399.19 107.18 L 399.16 106.02 C 393.71 107.82 390.78 114.69 389.27 119.99 C 389.65 120.00 390.39 120.03 390.76 120.04 C 392.70 123.75 396.50 126.07 399.99 128.15 C 406.88 121.51 412.37 113.30 419.84 107.13 C 418.12 122.35 416.18 137.63 416.36 152.98 C 416.72 160.90 416.89 169.90 423.00 175.82 C 424.46 177.75 427.78 178.92 429.39 176.49 C 434.04 169.88 439.09 163.51 444.92 157.89 C 450.45 152.50 458.04 148.73 461.87 141.91 C 459.09 138.97 455.51 134.87 451.06 135.84 C 441.18 141.44 434.09 150.72 425.53 157.88 C 423.63 134.90 428.86 111.95 430.68 89.18 L 431.77 89.09 C 430.58 84.33 420.58 82.04 420.42 87.74 M 376.25 147.32 C 370.09 152.79 363.30 157.88 359.04 165.09 C 356.87 169.39 362.58 176.15 366.49 173.86 L 365.75 173.25 C 369.71 168.74 373.39 163.94 377.94 159.98 C 376.43 171.72 375.01 183.64 376.32 195.47 C 377.10 198.63 379.05 204.37 383.20 203.29 C 388.60 194.78 396.62 188.73 403.86 181.94 C 402.21 179.47 398.51 175.88 395.58 178.60 C 390.16 182.01 386.31 187.37 381.23 191.11 C 380.50 176.97 383.15 162.88 384.76 148.86 L 385.77 149.13 C 384.77 144.79 378.98 144.52 376.25 147.32 M 352.13 186.95 C 348.39 190.39 343.99 193.36 341.50 197.92 C 341.18 199.68 343.33 200.40 344.23 201.57 C 347.28 199.71 348.88 196.25 351.67 194.09 C 351.97 202.40 347.55 212.92 354.00 219.68 C 357.99 214.96 363.32 210.82 366.94 206.01 C 361.68 200.72 358.17 210.56 353.66 211.69 C 353.83 204.07 354.60 196.49 355.71 188.95 C 356.62 186.73 353.42 185.59 352.13 186.95 M 108.45 224.10 C 108.99 216.06 109.03 207.94 108.69 199.88 C 106.50 207.56 108.45 216.11 108.45 224.10 Z" />
<path fill="#086092" opacity="1.00" d=" M 383.26 74.25 C 383.79 74.80 383.79 74.80 383.26 74.25 Z" />
<path fill="#086092" opacity="1.00" d=" M 144.44 437.50 C 147.95 435.33 152.17 435.48 156.07 434.58 C 155.96 434.95 155.75 435.69 155.64 436.06 C 151.83 436.72 146.87 436.35 144.41 439.88 C 144.35 439.08 144.36 438.29 144.44 437.50 Z" />
</g>
<g id="#1b4862b8">
<path fill="#1b4862" opacity="0.72" d=" M 394.67 26.12 C 398.80 25.98 402.81 27.16 406.80 28.03 C 407.16 28.43 407.88 29.22 408.24 29.61 C 403.43 29.74 399.24 27.15 394.67 26.12 Z" />
</g>
<g id="#737f8394">
<path fill="#737f83" opacity="0.58" d=" M 207.82 40.04 C 218.55 36.73 227.91 29.80 239.20 28.22 C 230.19 32.98 220.07 35.73 211.04 40.66 C 204.98 42.33 199.60 46.28 193.29 46.84 C 188.81 46.42 184.30 46.51 179.81 46.62 C 175.40 46.64 170.99 46.59 166.59 46.77 C 166.56 44.82 169.45 44.54 170.97 44.58 C 179.33 44.83 187.78 44.12 196.03 45.65 C 199.86 43.62 203.63 41.35 207.82 40.04 Z" />
</g>
<g id="#21415496">
<path fill="#214154" opacity="0.59" d=" M 406.80 28.03 C 422.55 30.52 437.43 39.01 446.49 52.30 C 457.57 70.30 462.51 91.71 463.69 112.51 C 461.13 107.02 461.93 100.74 460.67 94.93 C 456.54 74.08 449.57 51.55 431.20 38.85 C 427.16 35.88 422.59 33.65 417.82 32.11 C 414.78 30.77 411.55 29.88 408.24 29.61 C 407.88 29.22 407.16 28.43 406.80 28.03 Z" />
</g>
<g id="#0b476ded">
<path fill="#0b476d" opacity="0.93" d=" M 417.82 32.11 C 422.59 33.65 427.16 35.88 431.20 38.85 C 426.29 37.66 421.82 35.14 417.82 32.11 Z" />
</g>
<g id="#165b84fd">
<path fill="#165b84" opacity="1.00" d=" M 307.31 32.90 C 308.44 32.26 309.57 32.15 310.69 32.58 C 314.77 35.76 320.72 35.64 323.89 40.09 C 329.27 45.88 335.12 53.30 335.32 61.35 C 331.92 54.49 328.52 47.44 323.17 41.85 C 318.49 36.34 310.68 35.18 303.88 34.65 C 305.04 34.11 306.16 33.50 307.31 32.90 Z" />
</g>
<g id="#fffffaff">
<path fill="#fffffa" opacity="1.00" d=" M 389.01 36.24 C 389.43 36.36 390.26 36.61 390.68 36.73 C 390.65 37.13 390.58 37.95 390.54 38.35 C 389.82 38.24 388.39 38.03 387.67 37.92 C 388.00 37.50 388.67 36.66 389.01 36.24 Z" />
<path fill="#fffffa" opacity="1.00" d=" M 330.97 124.14 C 333.44 123.95 335.92 123.84 338.40 123.76 C 349.81 126.36 354.96 141.36 347.57 150.35 C 348.79 145.15 352.32 138.06 347.93 133.67 C 338.48 135.01 329.54 139.77 319.73 138.17 C 319.34 141.27 320.07 144.34 320.24 147.43 C 315.47 138.37 321.06 126.48 330.97 124.14 Z" />
</g>
<g id="#245852ff">
<path fill="#245852" opacity="1.00" d=" M 390.68 36.73 C 392.39 35.76 392.79 39.26 391.49 39.91 C 391.26 39.52 390.78 38.74 390.54 38.35 C 390.58 37.95 390.65 37.13 390.68 36.73 Z" />
</g>
<g id="#f9e882ff">
<path fill="#f9e882" opacity="1.00" d=" M 387.67 37.92 C 388.39 38.03 389.82 38.24 390.54 38.35 C 390.78 38.74 391.26 39.52 391.49 39.91 C 391.99 42.72 392.35 45.55 392.72 48.37 C 393.12 50.28 392.26 53.26 394.52 54.17 C 397.08 55.49 399.92 56.34 402.17 58.21 C 398.64 58.06 394.96 57.07 392.47 54.42 C 390.34 49.82 393.24 43.14 389.10 39.52 C 387.44 41.17 386.27 43.51 383.93 44.29 L 384.25 43.21 C 385.04 41.24 386.30 39.52 387.67 37.92 Z" />
<path fill="#f9e882" opacity="1.00" d=" M 226.04 176.37 C 227.44 176.84 228.83 177.32 230.22 177.81 C 230.32 177.28 230.53 176.24 230.63 175.71 C 231.08 176.39 231.54 177.07 231.99 177.75 C 233.04 179.78 234.23 181.74 235.64 183.55 C 236.63 185.04 237.62 186.53 238.51 188.09 C 239.32 200.02 251.65 208.20 253.88 219.80 C 252.73 219.78 251.59 219.73 250.45 219.68 C 242.35 205.25 235.91 189.65 226.04 176.37 Z" />
<path fill="#f9e882" opacity="1.00" d=" M 376.71 256.43 C 379.53 254.35 381.63 251.51 384.01 248.97 C 381.89 254.59 377.08 259.41 371.80 262.13 C 373.55 260.51 375.04 258.64 376.43 256.71 C 376.50 256.64 376.64 256.50 376.71 256.43 Z" />
<path fill="#f9e882" opacity="1.00" d=" M 252.18 250.67 C 253.76 252.43 255.33 254.20 256.87 256.00 C 257.34 256.36 258.28 257.07 258.75 257.43 L 259.23 257.71 C 259.47 258.28 259.97 259.41 260.22 259.97 C 258.31 258.83 256.56 257.44 254.86 256.02 C 253.57 254.45 252.53 252.69 252.18 250.67 Z" />
<path fill="#f9e882" opacity="1.00" d=" M 271.74 268.27 C 268.72 267.34 264.65 266.02 263.80 262.59 C 266.56 264.32 269.19 266.24 271.74 268.27 Z" />
<path fill="#f9e882" opacity="1.00" d=" M 272.21 268.58 C 274.70 269.61 277.19 270.65 279.62 271.82 L 280.24 272.16 C 277.09 272.36 274.05 271.21 272.21 268.58 Z" />
<path fill="#f9e882" opacity="1.00" d=" M 280.80 272.20 L 281.77 272.20 C 282.35 273.30 283.28 273.81 284.55 273.73 L 285.15 273.86 C 286.18 274.21 287.22 274.54 288.27 274.87 L 288.15 275.48 C 285.50 276.03 282.94 275.10 280.67 273.80 C 280.70 273.40 280.77 272.60 280.80 272.20 Z" />
<path fill="#f9e882" opacity="1.00" d=" M 354.18 274.03 C 355.20 273.51 356.23 272.98 357.25 272.44 C 357.25 272.77 357.26 273.43 357.26 273.76 C 351.95 277.40 345.57 279.58 339.17 280.20 C 338.31 280.16 336.58 280.07 335.72 280.03 L 336.21 279.66 C 339.79 279.34 343.38 278.56 346.54 276.76 C 346.85 276.69 347.47 276.56 347.79 276.49 C 350.09 276.19 352.20 275.21 354.18 274.03 Z" />
<path fill="#f9e882" opacity="1.00" d=" M 126.84 281.99 C 129.18 283.91 130.79 286.49 131.72 289.35 C 131.36 289.12 130.63 288.65 130.27 288.41 C 130.04 288.27 129.58 287.98 129.36 287.84 C 129.10 287.30 128.59 286.23 128.33 285.69 C 127.83 284.46 127.34 283.22 126.84 281.99 Z" />
<path fill="#f9e882" opacity="1.00" d=" M 164.87 321.97 C 172.89 328.39 181.73 333.66 189.78 340.02 L 189.71 341.29 C 187.52 340.34 185.42 339.20 183.62 337.62 C 183.38 336.06 182.50 335.50 180.98 335.94 C 176.46 332.69 172.01 329.30 167.18 326.52 L 166.75 326.12 L 166.34 325.34 C 165.92 324.19 165.47 323.04 164.87 321.97 Z" />
<path fill="#f9e882" opacity="1.00" d=" M 364.82 339.90 C 366.56 339.14 368.41 338.65 370.29 338.34 C 366.94 341.11 363.02 343.07 359.64 345.80 L 358.85 345.85 L 357.88 345.88 C 359.42 344.39 360.85 342.80 362.33 341.25 C 363.16 340.80 363.98 340.35 364.82 339.90 Z" />
</g>
<g id="#ffcd5dff">
<path fill="#ffcd5d" opacity="1.00" d=" M 383.93 44.29 C 386.27 43.51 387.44 41.17 389.10 39.52 C 393.24 43.14 390.34 49.82 392.47 54.42 C 394.96 57.07 398.64 58.06 402.17 58.21 C 404.70 58.61 406.75 60.43 408.70 61.97 C 406.50 64.23 403.24 65.42 400.17 65.91 C 398.90 66.01 397.65 66.17 396.42 66.39 C 394.50 72.04 396.85 78.34 395.75 84.27 C 390.52 83.89 388.56 77.60 384.07 75.57 C 378.86 72.90 375.43 79.45 370.83 79.88 C 369.47 79.44 368.00 80.23 367.91 81.71 L 367.67 82.46 C 367.06 82.50 365.83 82.59 365.21 82.64 L 364.93 81.82 C 364.97 81.40 365.06 80.55 365.10 80.12 C 366.25 75.56 368.15 71.18 370.40 67.05 C 370.62 66.52 371.05 65.46 371.27 64.93 C 370.24 63.31 369.10 61.78 367.94 60.27 C 366.71 57.47 364.23 55.23 363.66 52.17 C 369.56 51.73 375.54 52.65 381.39 51.52 C 381.56 50.38 381.74 49.25 381.94 48.12 C 382.18 47.00 382.48 45.88 382.83 44.79 C 383.11 44.66 383.65 44.41 383.93 44.29 M 383.27 45.30 C 383.81 45.84 383.81 45.84 383.27 45.30 M 383.26 74.25 C 383.79 74.80 383.79 74.80 383.26 74.25 Z" />
</g>
<g id="#ccd4abff">
<path fill="#ccd4ab" opacity="1.00" d=" M 383.27 45.30 C 383.81 45.84 383.81 45.84 383.27 45.30 Z" />
</g>
<g id="#fffffbff">
<path fill="#fffffb" opacity="1.00" d=" M 166.59 46.77 C 170.99 46.59 175.40 46.64 179.81 46.62 C 180.15 48.66 180.57 50.69 181.06 52.70 C 180.42 53.43 179.79 54.16 179.17 54.90 C 178.91 55.21 178.40 55.82 178.14 56.13 C 179.87 59.21 182.50 61.64 184.99 64.11 C 193.56 72.99 203.64 80.18 213.39 87.69 C 217.06 90.55 220.64 93.56 224.64 95.96 C 230.62 100.22 236.45 104.72 242.48 108.92 C 237.19 115.47 228.57 119.32 220.17 117.51 C 212.46 115.68 205.97 110.82 199.54 106.42 C 184.77 95.69 170.67 84.08 156.90 72.10 C 153.67 69.25 150.01 66.76 147.64 63.08 C 149.92 53.56 160.36 52.19 166.59 46.77 Z" />
</g>
<g id="#e0dcdbff">
<path fill="#e0dcdb" opacity="1.00" d=" M 179.81 46.62 C 184.30 46.51 188.81 46.42 193.29 46.84 C 189.40 49.17 185.50 51.57 181.06 52.70 C 180.57 50.69 180.15 48.66 179.81 46.62 Z" />
<path fill="#e0dcdb" opacity="1.00" d=" M 339.19 355.63 C 337.13 353.22 341.44 353.41 342.82 353.98 C 341.68 354.68 340.49 355.32 339.19 355.63 Z" />
</g>
<g id="#fffad0ff">
<path fill="#fffad0" opacity="1.00" d=" M 380.57 49.97 C 380.58 48.98 381.03 48.37 381.94 48.12 C 381.74 49.25 381.56 50.38 381.39 51.52 C 375.54 52.65 369.56 51.73 363.66 52.17 C 364.23 55.23 366.71 57.47 367.94 60.27 C 365.58 57.65 362.81 55.03 362.04 51.44 C 368.11 50.95 374.20 51.44 380.27 51.15 L 380.57 49.97 Z" />
<path fill="#fffad0" opacity="1.00" d=" M 396.42 66.39 C 397.65 66.17 398.90 66.01 400.17 65.91 L 399.60 66.21 C 398.43 66.61 397.34 67.14 396.32 67.81 C 396.83 73.89 397.12 80.04 396.40 86.12 L 396.28 87.09 C 393.21 85.45 390.70 83.04 388.36 80.50 C 386.84 78.94 385.32 77.36 384.07 75.57 C 388.56 77.60 390.52 83.89 395.75 84.27 C 396.85 78.34 394.50 72.04 396.42 66.39 Z" />
<path fill="#fffad0" opacity="1.00" d=" M 400.59 230.01 C 401.04 229.34 401.51 228.69 402.00 228.05 C 401.49 230.80 400.81 233.52 400.06 236.22 C 393.88 252.71 385.06 268.96 370.68 279.70 C 356.28 289.76 338.31 293.19 321.00 292.57 C 307.40 293.22 293.78 290.45 281.34 285.03 C 263.74 279.12 251.87 263.39 244.04 247.31 C 243.57 247.28 242.64 247.23 242.17 247.21 C 242.57 246.31 242.97 245.42 243.37 244.53 C 246.88 248.44 248.53 254.37 253.51 256.68 C 263.84 272.05 283.20 277.72 300.10 282.79 C 312.79 286.09 326.48 287.57 339.30 284.17 C 351.68 280.85 364.35 276.16 373.04 266.20 C 385.12 256.67 393.47 243.44 400.59 230.01 Z" />
<path fill="#fffad0" opacity="1.00" d=" M 82.58 231.59 C 82.81 231.36 83.28 230.89 83.51 230.66 C 85.43 232.54 87.18 234.60 89.09 236.51 C 90.32 238.59 91.73 240.66 91.99 243.14 C 87.69 243.45 83.48 242.23 79.19 242.21 C 79.45 242.16 79.96 242.05 80.22 242.00 C 83.66 241.91 87.11 242.14 90.55 242.10 C 89.67 237.56 85.62 234.71 82.58 231.59 Z" />
<path fill="#fffad0" opacity="1.00" d=" M 70.00 255.04 C 71.34 250.58 71.75 245.58 74.70 241.81 C 74.26 246.17 71.52 250.01 71.30 254.33 C 71.61 255.27 72.00 256.18 72.44 257.07 C 72.89 258.38 73.28 259.71 73.69 261.04 C 72.80 259.32 72.76 257.10 71.17 255.83 C 70.88 255.63 70.29 255.24 70.00 255.04 Z" />
<path fill="#fffad0" opacity="1.00" d=" M 291.40 276.06 C 293.37 276.63 295.35 277.18 297.32 277.78 C 297.71 277.92 298.48 278.19 298.86 278.33 C 300.28 279.45 302.12 279.55 303.83 279.12 L 304.41 279.67 C 302.97 279.74 301.54 279.81 300.11 279.86 C 297.17 278.73 293.56 278.60 291.40 276.06 Z" />
<path fill="#fffad0" opacity="1.00" d=" M 202.68 348.33 C 204.59 348.91 206.73 349.52 207.72 351.45 C 206.76 350.56 205.65 350.25 204.37 350.53 L 204.11 350.17 C 203.76 349.71 203.04 348.79 202.68 348.33 Z" />
<path fill="#fffad0" opacity="1.00" d=" M 213.03 353.89 C 215.89 354.26 218.76 355.37 220.66 357.63 C 219.48 357.13 218.28 356.68 217.08 356.27 C 216.80 356.12 216.25 355.80 215.97 355.64 C 215.05 354.82 213.98 354.41 212.77 354.41 L 213.03 353.89 Z" />
</g>
<g id="#284952ff">
<path fill="#284952" opacity="1.00" d=" M 392.72 48.37 C 394.60 49.01 394.74 52.41 394.52 54.17 C 392.26 53.26 393.12 50.28 392.72 48.37 Z" />
</g>
<g id="#3c6158ff">
<path fill="#3c6158" opacity="1.00" d=" M 361.23 50.36 C 367.62 49.43 374.13 49.93 380.57 49.97 L 380.27 51.15 C 374.20 51.44 368.11 50.95 362.04 51.44 C 362.81 55.03 365.58 57.65 367.94 60.27 C 369.10 61.78 370.24 63.31 371.27 64.93 C 371.05 65.46 370.62 66.52 370.40 67.05 C 368.33 60.88 360.31 57.58 361.23 50.36 Z" />
</g>
<g id="#23a0b6ff">
<path fill="#23a0b6" opacity="1.00" d=" M 179.17 54.90 C 180.72 54.60 182.60 53.75 183.96 55.02 C 192.55 61.43 201.18 67.83 210.10 73.79 C 214.36 77.15 219.64 74.12 224.13 72.90 C 239.58 66.88 254.90 60.48 270.40 54.57 C 272.09 54.05 273.89 54.01 275.65 53.96 C 284.62 55.65 294.27 55.67 303.31 54.19 C 311.44 55.31 323.14 52.73 327.53 61.58 C 333.03 70.58 337.96 80.01 341.58 89.93 C 341.76 89.42 342.12 88.41 342.30 87.90 C 343.52 99.50 343.59 111.50 340.94 122.91 C 337.95 122.70 334.99 122.11 331.99 122.34 C 334.14 122.69 336.35 122.94 338.40 123.76 C 335.92 123.84 333.44 123.95 330.97 124.14 C 328.05 121.70 326.94 117.97 325.29 114.69 C 319.27 103.15 313.37 91.24 304.24 81.77 C 303.09 80.40 301.24 79.52 299.56 80.55 C 284.33 87.19 269.36 94.87 256.47 105.48 C 253.71 107.83 251.37 110.74 248.05 112.36 C 247.12 111.75 246.18 111.14 245.23 110.55 C 245.05 107.14 240.87 106.33 238.71 104.32 C 234.02 101.57 230.39 96.36 224.64 95.96 C 220.64 93.56 217.06 90.55 213.39 87.69 C 213.77 85.68 211.79 84.64 210.53 83.51 C 203.41 77.98 195.88 72.88 189.64 66.32 C 188.36 65.11 187.02 63.23 184.99 64.11 C 182.50 61.64 179.87 59.21 178.14 56.13 C 178.40 55.82 178.91 55.21 179.17 54.90 Z" />
<path fill="#23a0b6" opacity="1.00" d=" M 416.97 362.28 C 427.40 361.23 437.61 358.23 448.09 357.88 C 448.71 367.03 446.14 375.99 445.81 385.09 C 444.70 393.91 444.43 402.82 442.81 411.58 C 441.25 420.27 440.73 429.15 438.90 437.81 C 427.27 441.12 415.06 441.51 403.16 443.56 C 403.50 443.72 404.18 444.04 404.52 444.20 L 404.95 444.40 C 310.58 458.43 216.33 472.08 122.04 486.05 C 116.54 486.61 111.02 488.78 105.47 487.49 C 104.10 483.46 101.96 479.70 100.99 475.56 C 94.96 456.91 87.88 438.53 80.35 420.43 C 79.67 418.48 81.82 417.39 82.93 416.21 C 125.67 409.93 168.22 402.24 210.95 395.92 C 212.90 395.85 214.81 395.45 216.54 394.54 C 280.06 384.68 343.50 374.11 406.98 364.00 C 407.93 363.74 408.58 363.11 408.93 362.11 L 409.45 361.36 C 410.88 364.82 414.36 362.56 416.97 362.28 M 378.00 384.16 C 377.49 384.31 376.48 384.63 375.97 384.78 C 375.13 383.19 369.82 383.67 372.30 385.56 C 370.39 385.97 368.41 386.38 366.88 387.68 C 368.51 387.87 370.16 388.03 371.80 387.76 C 373.10 388.00 374.41 388.26 375.72 388.52 C 376.64 400.22 374.23 412.35 377.36 423.85 C 378.13 428.75 385.19 431.97 388.56 427.59 C 388.59 424.56 387.00 421.18 384.81 419.10 L 384.57 420.32 C 382.70 409.10 382.67 397.47 383.23 386.12 C 386.05 384.63 389.77 385.41 392.23 383.24 C 389.19 383.03 386.15 383.20 383.13 383.56 C 382.95 380.64 383.92 377.62 383.10 374.80 C 377.56 372.82 379.39 381.00 378.00 384.16 M 338.73 379.64 C 336.67 391.19 338.17 403.19 338.02 414.92 C 338.25 415.28 338.71 416.02 338.93 416.39 C 338.64 404.58 338.68 392.76 338.93 380.96 L 339.90 380.88 C 339.29 397.36 338.12 414.60 342.37 430.70 C 345.11 431.23 347.03 428.60 348.25 426.53 C 350.15 418.45 350.37 410.00 353.20 402.14 C 354.84 408.32 352.57 414.85 354.63 420.98 C 354.86 419.26 355.08 417.53 355.18 415.80 C 355.66 419.35 356.64 422.83 357.88 426.20 L 356.91 425.75 C 357.04 429.33 361.84 430.15 363.84 427.77 C 365.72 423.25 362.86 418.66 362.86 414.07 C 362.17 407.69 363.91 400.50 360.19 394.83 C 353.36 389.47 345.97 399.49 348.23 406.17 C 347.02 410.65 347.59 415.34 346.62 419.85 C 344.89 413.14 345.94 406.05 345.14 399.20 C 347.34 394.92 345.94 388.82 345.50 383.94 L 344.38 384.47 C 344.12 383.22 343.83 381.99 343.48 380.78 L 344.37 380.21 C 343.38 378.22 340.45 379.19 338.73 379.64 M 289.72 396.97 C 289.76 406.93 289.94 416.91 290.49 426.86 C 281.79 419.79 276.95 408.75 267.97 401.71 C 266.64 401.50 265.40 401.67 264.27 402.20 C 263.77 413.78 264.95 425.38 265.20 436.96 C 265.50 439.09 265.93 442.63 268.63 442.80 L 268.75 443.92 C 277.85 437.89 274.09 425.79 273.92 416.72 C 279.39 422.65 283.72 430.50 290.27 435.54 C 292.43 435.94 295.09 435.09 295.44 432.62 C 295.93 427.77 296.22 422.80 295.43 417.97 C 294.66 422.68 296.50 427.87 294.24 432.25 C 295.12 419.33 293.07 406.18 291.27 393.38 C 289.75 393.41 290.14 395.91 289.72 396.97 M 234.57 398.39 C 234.07 404.96 233.25 411.51 233.00 418.10 C 230.72 418.22 227.63 416.07 225.86 418.00 C 224.47 417.90 223.09 417.85 221.70 417.84 C 221.77 417.45 221.89 416.68 221.95 416.29 C 215.01 416.85 211.72 423.65 211.92 429.92 C 209.26 426.67 209.99 420.22 205.63 417.45 C 202.04 417.17 195.91 416.23 195.07 421.07 C 193.76 422.43 192.50 423.84 191.32 425.31 L 191.22 424.32 C 187.01 426.37 186.94 432.85 185.71 437.06 C 182.83 433.51 185.18 424.66 179.58 424.21 C 178.92 423.67 178.25 423.14 177.57 422.64 L 177.90 421.51 C 174.66 420.87 171.18 421.24 168.62 423.50 C 159.25 429.65 158.36 442.27 159.62 452.37 C 161.14 458.14 167.44 460.86 173.00 459.66 C 171.40 458.10 168.50 459.86 166.79 458.14 C 170.19 458.10 174.06 458.42 176.83 456.05 C 182.21 455.40 183.49 448.43 184.58 443.99 C 186.30 445.34 186.02 447.69 186.66 449.59 C 189.88 456.24 200.18 457.42 205.35 452.47 C 208.11 449.20 212.21 443.42 209.98 439.66 C 210.14 437.02 210.17 434.37 210.17 431.73 C 212.73 436.75 217.00 440.74 222.65 441.87 C 222.70 441.45 222.79 440.60 222.83 440.18 C 223.24 440.27 224.05 440.44 224.45 440.53 L 223.91 441.65 C 226.58 442.10 229.32 442.25 232.02 441.94 L 231.86 440.65 L 232.77 440.46 C 233.67 442.20 233.53 444.97 235.42 445.92 L 235.46 446.63 C 237.65 448.97 241.22 447.08 240.63 443.95 C 240.02 431.97 239.62 419.96 240.16 407.96 C 240.35 404.17 241.51 400.21 239.82 396.58 L 240.24 395.76 C 237.98 395.40 235.35 395.96 234.57 398.39 M 328.83 396.73 C 328.39 398.04 327.91 399.34 327.45 400.65 C 323.86 402.59 319.81 404.03 316.96 407.07 C 317.48 407.08 318.52 407.11 319.04 407.12 C 315.73 411.05 310.62 415.22 311.80 420.94 C 314.22 426.82 322.26 423.51 325.39 419.88 C 328.32 427.09 325.85 437.56 320.33 443.31 C 316.26 447.16 312.96 439.56 315.72 436.60 C 318.71 432.56 310.76 431.02 308.64 433.56 C 304.58 440.12 306.09 450.93 314.14 453.65 C 324.08 456.86 333.17 446.88 334.29 437.75 L 333.21 438.06 C 334.99 429.36 334.50 420.42 334.49 411.59 C 336.21 418.30 334.76 425.36 335.31 432.21 C 336.22 420.53 336.93 407.61 332.55 396.33 C 331.29 396.27 330.01 396.22 328.83 396.73 M 264.34 400.80 C 265.64 401.47 267.30 401.03 268.66 400.70 C 268.39 399.19 264.46 399.14 264.34 400.80 M 299.17 405.84 C 301.21 407.45 304.01 405.13 302.13 402.98 C 300.11 402.19 298.96 404.05 299.17 405.84 M 298.56 409.45 C 297.59 417.84 298.17 426.34 299.53 434.65 C 299.81 436.67 301.90 438.21 303.89 437.27 C 304.41 430.49 302.91 423.78 302.88 417.01 C 302.75 414.08 303.44 410.61 300.95 408.44 C 300.35 408.69 299.15 409.20 298.56 409.45 M 145.79 416.56 C 140.18 417.90 137.20 423.29 135.00 428.14 C 135.43 426.70 135.71 425.24 135.94 423.78 C 129.92 432.88 129.80 445.61 133.53 455.66 C 137.45 461.55 145.68 460.96 150.77 456.98 C 151.18 459.64 152.40 462.67 155.56 462.71 C 159.62 454.75 156.89 445.53 158.49 437.05 C 158.10 437.05 157.33 437.04 156.95 437.04 C 156.62 436.79 155.97 436.31 155.64 436.06 C 155.75 435.69 155.96 434.95 156.07 434.58 C 152.17 435.48 147.95 435.33 144.44 437.50 C 144.36 438.29 144.35 439.08 144.41 439.88 L 145.28 440.72 C 144.95 440.96 144.28 441.45 143.94 441.69 C 146.65 442.15 149.41 442.29 152.15 442.08 C 151.95 447.00 149.54 452.27 145.03 454.56 C 141.25 454.48 139.98 450.04 139.56 446.99 C 138.99 438.85 139.13 429.33 144.96 422.99 C 148.06 419.63 151.84 422.94 155.08 424.00 C 156.79 419.09 150.17 414.50 145.79 416.56 Z" />
</g>
<g id="#1092a4ff">
<path fill="#1092a4" opacity="1.00" d=" M 275.65 53.96 C 284.86 53.34 294.10 53.75 303.31 54.19 C 294.27 55.67 284.62 55.65 275.65 53.96 Z" />
</g>
<g id="#acbccdff">
<path fill="#acbccd" opacity="1.00" d=" M 144.55 67.59 C 144.14 65.35 143.65 61.73 147.15 62.41 L 147.64 63.08 C 150.01 66.76 153.67 69.25 156.90 72.10 C 170.67 84.08 184.77 95.69 199.54 106.42 C 205.97 110.82 212.46 115.68 220.17 117.51 C 228.57 119.32 237.19 115.47 242.48 108.92 C 243.39 109.47 244.31 110.02 245.23 110.55 C 246.18 111.14 247.12 111.75 248.05 112.36 C 248.95 113.16 249.75 114.04 250.57 114.91 C 250.26 119.87 248.94 124.68 248.26 129.58 C 247.54 132.41 247.25 135.40 246.02 138.07 C 242.20 141.18 236.91 140.91 232.28 140.54 C 231.22 139.19 229.95 138.01 228.53 137.04 C 228.28 138.72 228.05 140.42 227.95 142.12 C 227.86 140.17 227.69 138.21 227.25 136.30 C 226.76 136.15 225.77 135.85 225.28 135.70 C 220.42 130.04 212.37 128.25 207.05 123.01 C 194.56 114.59 182.07 106.05 169.90 97.16 C 162.72 92.20 154.73 87.36 150.38 79.53 C 148.71 75.42 146.41 71.61 144.55 67.59 Z" />
</g>
<g id="#0b8395ff">
<path fill="#0b8395" opacity="1.00" d=" M 184.99 64.11 C 187.02 63.23 188.36 65.11 189.64 66.32 C 195.88 72.88 203.41 77.98 210.53 83.51 C 211.79 84.64 213.77 85.68 213.39 87.69 C 203.64 80.18 193.56 72.99 184.99 64.11 Z" />
<path fill="#0b8395" opacity="1.00" d=" M 224.64 95.96 C 230.39 96.36 234.02 101.57 238.71 104.32 C 240.87 106.33 245.05 107.14 245.23 110.55 C 244.31 110.02 243.39 109.47 242.48 108.92 C 236.45 104.72 230.62 100.22 224.64 95.96 Z" />
<path fill="#0b8395" opacity="1.00" d=" M 371.80 387.76 C 373.75 387.49 375.71 387.22 377.68 387.05 C 377.69 387.48 377.70 388.34 377.71 388.77 C 376.99 400.39 375.12 412.89 379.10 424.05 C 380.11 427.51 383.73 428.26 386.89 427.73 C 386.59 425.12 385.26 422.81 384.57 420.32 L 384.81 419.10 C 387.00 421.18 388.59 424.56 388.56 427.59 C 385.19 431.97 378.13 428.75 377.36 423.85 C 374.23 412.35 376.64 400.22 375.72 388.52 C 374.41 388.26 373.10 388.00 371.80 387.76 Z" />
<path fill="#0b8395" opacity="1.00" d=" M 348.23 406.17 C 345.97 399.49 353.36 389.47 360.19 394.83 C 363.91 400.50 362.17 407.69 362.86 414.07 C 362.86 418.66 365.72 423.25 363.84 427.77 C 361.84 430.15 357.04 429.33 356.91 425.75 L 357.88 426.20 C 359.46 426.88 361.12 428.32 362.90 427.22 C 362.14 419.33 361.30 411.43 361.23 403.49 C 360.94 399.87 359.94 394.04 355.01 394.74 C 350.78 396.79 349.54 402.02 348.23 406.17 Z" />
<path fill="#0b8395" opacity="1.00" d=" M 234.57 398.39 C 235.35 395.96 237.98 395.40 240.24 395.76 L 239.82 396.58 C 238.75 396.99 237.68 397.37 236.61 397.75 C 235.03 405.43 234.53 413.33 234.23 421.17 C 231.47 420.04 228.78 418.67 225.86 418.00 C 227.63 416.07 230.72 418.22 233.00 418.10 C 233.25 411.51 234.07 404.96 234.57 398.39 Z" />
<path fill="#0b8395" opacity="1.00" d=" M 328.83 396.73 C 330.01 396.22 331.29 396.27 332.55 396.33 C 336.93 407.61 336.22 420.53 335.31 432.21 C 334.76 425.36 336.21 418.30 334.49 411.59 C 334.01 407.20 333.47 402.79 332.22 398.54 C 331.40 398.46 330.58 398.37 329.77 398.29 C 329.38 399.47 329.00 400.65 328.63 401.84 C 325.40 403.53 321.96 404.87 319.04 407.12 C 318.52 407.11 317.48 407.08 316.96 407.07 C 319.81 404.03 323.86 402.59 327.45 400.65 C 327.91 399.34 328.39 398.04 328.83 396.73 Z" />
<path fill="#0b8395" opacity="1.00" d=" M 272.03 411.00 C 277.93 418.74 283.22 427.03 290.42 433.69 C 291.44 433.73 292.45 433.73 293.48 433.68 C 293.67 433.32 294.05 432.60 294.24 432.25 C 296.50 427.87 294.66 422.68 295.43 417.97 C 296.22 422.80 295.93 427.77 295.44 432.62 C 295.09 435.09 292.43 435.94 290.27 435.54 C 283.72 430.50 279.39 422.65 273.92 416.72 C 274.09 425.79 277.85 437.89 268.75 443.92 L 268.63 442.80 C 276.88 434.16 271.92 421.53 272.03 411.00 Z" />
<path fill="#0b8395" opacity="1.00" d=" M 211.92 429.92 C 211.72 423.65 215.01 416.85 221.95 416.29 C 221.89 416.68 221.77 417.45 221.70 417.84 C 214.60 419.16 211.89 427.75 213.77 433.98 C 215.17 437.72 219.39 439.00 222.83 440.18 C 222.79 440.60 222.70 441.45 222.65 441.87 C 217.00 440.74 212.73 436.75 210.17 431.73 C 209.38 427.05 208.66 421.64 204.49 418.66 C 201.13 417.66 197.79 419.19 195.07 421.07 C 195.91 416.23 202.04 417.17 205.63 417.45 C 209.99 420.22 209.26 426.67 211.92 429.92 Z" />
<path fill="#0b8395" opacity="1.00" d=" M 325.39 419.88 C 326.60 418.53 327.74 417.12 328.95 415.77 C 328.10 423.47 328.14 431.41 325.56 438.81 C 324.09 442.89 320.05 446.83 315.39 445.53 C 311.80 442.57 314.00 437.55 314.01 433.63 C 308.71 432.72 307.64 439.14 308.20 443.02 C 308.33 449.57 315.91 454.68 322.00 452.00 C 327.49 449.20 331.33 443.85 333.21 438.06 L 334.29 437.75 C 333.17 446.88 324.08 456.86 314.14 453.65 C 306.09 450.93 304.58 440.12 308.64 433.56 C 310.76 431.02 318.71 432.56 315.72 436.60 C 312.96 439.56 316.26 447.16 320.33 443.31 C 325.85 437.56 328.32 427.09 325.39 419.88 Z" />
<path fill="#0b8395" opacity="1.00" d=" M 168.62 423.50 C 171.18 421.24 174.66 420.87 177.90 421.51 L 177.57 422.64 C 168.97 421.56 162.97 430.14 161.22 437.56 C 158.95 444.61 159.19 454.45 166.79 458.14 C 168.50 459.86 171.40 458.10 173.00 459.66 C 167.44 460.86 161.14 458.14 159.62 452.37 C 158.36 442.27 159.25 429.65 168.62 423.50 Z" />
<path fill="#0b8395" opacity="1.00" d=" M 133.53 455.66 C 129.80 445.61 129.92 432.88 135.94 423.78 C 135.71 425.24 135.43 426.70 135.00 428.14 C 132.23 436.93 130.75 447.35 135.48 455.71 C 140.34 461.40 148.81 457.99 151.76 452.11 C 152.12 455.16 151.71 458.66 153.88 461.16 C 159.16 454.70 155.34 444.87 156.95 437.04 C 157.33 437.04 158.10 437.05 158.49 437.05 C 156.89 445.53 159.62 454.75 155.56 462.71 C 152.40 462.67 151.18 459.64 150.77 456.98 C 145.68 460.96 137.45 461.55 133.53 455.66 Z" />
<path fill="#0b8395" opacity="1.00" d=" M 179.58 424.21 C 185.18 424.66 182.83 433.51 185.71 437.06 C 186.94 432.85 187.01 426.37 191.22 424.32 L 191.32 425.31 C 186.44 433.43 183.04 447.15 192.46 453.34 C 201.67 457.14 208.63 447.72 209.98 439.66 C 212.21 443.42 208.11 449.20 205.35 452.47 C 200.18 457.42 189.88 456.24 186.66 449.59 C 186.02 447.69 186.30 445.34 184.58 443.99 C 183.49 448.43 182.21 455.40 176.83 456.05 C 185.26 447.94 185.83 433.72 179.58 424.21 Z" />
<path fill="#0b8395" opacity="1.00" d=" M 218.38 431.64 C 217.62 429.18 218.45 425.78 221.06 424.83 C 228.08 422.53 236.44 428.85 234.50 436.46 C 228.96 436.37 222.16 436.42 218.38 431.64 M 221.36 432.35 C 221.37 432.70 221.41 433.41 221.42 433.77 C 225.04 433.79 228.51 434.88 232.07 435.38 C 235.67 430.84 228.50 425.69 224.00 426.23 C 220.48 425.36 217.85 430.58 221.36 432.35 Z" />
<path fill="#0b8395" opacity="1.00" d=" M 174.43 426.70 C 177.19 426.65 178.68 429.96 179.69 432.14 C 181.28 438.29 181.91 445.59 178.00 451.02 C 174.61 454.43 168.09 452.03 167.97 447.08 C 167.28 440.14 168.59 430.96 174.43 426.70 M 175.15 428.20 C 170.08 432.76 168.74 440.39 169.06 446.91 C 170.89 451.91 177.05 451.85 179.01 446.97 C 179.69 440.65 181.01 432.54 175.15 428.20 Z" />
</g>
<g id="#2a4b55ff">
<path fill="#2a4b55" opacity="1.00" d=" M 396.32 67.81 C 397.34 67.14 398.43 66.61 399.60 66.21 C 399.62 67.46 399.02 68.46 397.80 69.21 C 397.32 74.53 399.78 82.58 396.40 86.12 C 397.12 80.04 396.83 73.89 396.32 67.81 Z" />
</g>
<g id="#f2941fff">
<path fill="#f2941f" opacity="1.00" d=" M 150.38 79.53 C 154.73 87.36 162.72 92.20 169.90 97.16 C 182.07 106.05 194.56 114.59 207.05 123.01 C 212.37 128.25 220.42 130.04 225.28 135.70 C 225.79 143.82 224.09 151.89 224.91 160.00 C 214.44 154.11 206.73 144.15 197.30 136.71 C 180.12 120.69 162.17 105.10 148.32 85.98 C 149.11 84.94 149.90 83.91 150.63 82.84 C 150.57 82.42 150.46 81.59 150.40 81.17 C 150.40 80.76 150.39 79.94 150.38 79.53 Z" />
</g>
<g id="#335c5cff">
<path fill="#335c5c" opacity="1.00" d=" M 364.93 81.82 C 362.32 83.67 362.67 78.15 365.10 80.12 C 365.06 80.55 364.97 81.40 364.93 81.82 Z" />
</g>
<g id="#c0c493ff">
<path fill="#c0c493" opacity="1.00" d=" M 367.91 81.71 C 368.00 80.23 369.47 79.44 370.83 79.88 C 371.71 81.34 368.94 82.76 367.91 81.71 Z" />
</g>
<g id="#205065ff">
<path fill="#205065" opacity="1.00" d=" M 388.36 80.50 C 390.70 83.04 393.21 85.45 396.28 87.09 L 397.10 87.63 C 396.34 87.71 394.82 87.87 394.06 87.96 C 391.88 85.83 387.65 84.06 388.36 80.50 Z" />
</g>
<g id="#f8c045ff">
<path fill="#f8c045" opacity="1.00" d=" M 147.82 82.59 C 148.46 82.24 149.76 81.53 150.40 81.17 C 150.46 81.59 150.57 82.42 150.63 82.84 C 149.90 83.91 149.11 84.94 148.32 85.98 C 162.17 105.10 180.12 120.69 197.30 136.71 C 206.73 144.15 214.44 154.11 224.91 160.00 C 225.30 160.17 226.09 160.53 226.48 160.71 C 227.29 164.35 225.50 168.65 227.81 171.85 C 228.76 173.13 229.76 174.37 230.63 175.71 C 230.53 176.24 230.32 177.28 230.22 177.81 C 228.83 177.32 227.44 176.84 226.04 176.37 C 235.91 189.65 242.35 205.25 250.45 219.68 C 251.59 219.73 252.73 219.78 253.88 219.80 C 251.65 208.20 239.32 200.02 238.51 188.09 C 239.12 189.17 239.74 190.24 240.39 191.31 C 240.45 191.40 240.55 191.57 240.61 191.66 C 240.71 192.06 240.91 192.86 241.01 193.26 L 241.98 193.65 C 245.10 198.56 248.21 203.46 251.38 208.34 C 251.43 208.44 251.52 208.63 251.57 208.73 C 251.82 209.40 252.32 210.73 252.57 211.40 C 252.83 211.20 253.09 210.99 253.35 210.79 C 254.52 214.65 257.67 217.73 258.10 221.82 C 256.73 222.15 255.37 222.49 254.02 222.87 C 247.38 224.65 239.94 226.10 234.79 230.94 C 236.39 232.48 238.28 233.82 240.52 234.21 C 241.20 234.26 241.90 234.30 242.59 234.33 C 243.11 236.38 243.85 238.38 245.24 240.01 C 246.27 241.46 247.35 242.88 248.39 244.33 C 249.57 246.49 250.92 248.55 252.18 250.67 C 252.53 252.69 253.57 254.45 254.86 256.02 L 253.51 256.68 C 248.53 254.37 246.88 248.44 243.37 244.53 C 242.97 245.42 242.57 246.31 242.17 247.21 C 242.64 247.23 243.57 247.28 244.04 247.31 C 251.87 263.39 263.74 279.12 281.34 285.03 C 293.78 290.45 307.40 293.22 321.00 292.57 C 338.31 293.19 356.28 289.76 370.68 279.70 C 385.06 268.96 393.88 252.71 400.06 236.22 C 405.89 234.58 403.43 226.68 399.50 224.08 C 399.63 223.58 399.89 222.56 400.01 222.05 C 401.91 217.15 403.76 212.19 406.10 207.48 L 407.18 207.39 C 407.73 208.92 408.22 210.48 408.64 212.06 C 409.11 215.92 409.63 219.77 410.19 223.62 C 410.33 228.93 410.80 234.22 410.66 239.53 C 409.57 240.78 408.65 242.24 408.84 243.97 C 408.72 254.63 409.76 265.45 407.50 275.97 C 407.27 274.61 407.04 273.24 406.88 271.87 C 407.49 256.25 409.62 240.27 406.52 224.85 C 405.18 246.79 400.55 269.95 386.61 287.57 C 374.61 301.78 357.71 310.62 340.86 317.81 C 308.27 330.87 272.06 335.22 237.37 329.54 C 187.33 320.68 141.23 286.96 121.21 239.73 C 117.27 230.79 114.90 221.32 112.29 211.95 C 112.02 226.89 114.79 241.65 117.24 256.24 L 115.59 256.20 L 115.16 255.92 C 114.93 255.48 114.46 254.60 114.23 254.16 C 106.92 223.22 108.14 190.62 114.36 159.62 C 116.26 159.26 116.33 157.05 115.25 155.80 C 116.33 147.12 119.24 138.79 121.52 130.37 C 123.30 127.13 124.27 123.56 125.17 120.00 C 126.17 117.42 127.16 114.85 128.28 112.32 L 128.80 111.78 C 131.42 110.26 132.82 107.58 132.49 104.55 C 136.36 96.41 141.97 89.37 147.82 82.59 M 184.74 200.81 C 178.30 202.34 174.60 194.89 171.62 190.35 C 168.17 185.72 167.66 178.38 163.21 175.08 C 162.18 186.53 167.19 198.53 175.97 205.97 C 180.95 209.70 188.80 208.51 191.95 202.97 C 196.26 195.07 195.80 185.56 194.30 176.96 C 193.80 175.18 194.06 172.67 192.04 171.84 C 188.48 180.93 191.86 192.82 184.74 200.81 M 182.86 233.88 C 184.35 243.97 193.25 252.24 202.01 256.92 C 214.28 263.81 230.62 258.76 237.88 247.01 C 232.38 246.59 228.20 251.70 222.84 252.59 C 211.98 255.54 201.06 249.98 193.26 242.73 C 189.72 239.87 187.18 235.66 182.86 233.88 M 311.89 293.41 C 319.78 295.05 328.04 293.95 336.03 293.40 C 327.99 293.26 319.93 293.03 311.89 293.41 Z" />
</g>
<g id="#424c4979">
<path fill="#424c49" opacity="0.47" d=" M 138.00 92.93 C 141.32 89.54 143.35 84.69 147.82 82.59 C 141.97 89.37 136.36 96.41 132.49 104.55 C 131.75 105.65 131.00 106.74 130.34 107.89 C 130.29 107.40 130.19 106.41 130.14 105.91 C 126.84 107.27 124.08 109.56 121.47 111.93 C 119.67 113.15 117.86 114.37 116.17 115.76 C 114.03 116.75 112.03 118.02 110.52 119.87 C 108.31 121.53 106.04 123.11 103.79 124.71 C 102.38 125.21 101.19 126.16 100.63 127.58 L 100.22 127.92 C 94.25 131.64 89.15 136.67 84.67 142.05 C 81.77 144.72 79.29 147.79 76.42 150.48 C 76.51 150.03 76.69 149.12 76.78 148.67 C 91.50 131.15 110.30 117.83 129.03 105.04 C 134.04 102.79 134.50 96.64 138.00 92.93 Z" />
</g>
<g id="#16527cff">
<path fill="#16527c" opacity="1.00" d=" M 420.42 87.74 C 420.58 82.04 430.58 84.33 431.77 89.09 L 430.68 89.18 C 427.69 87.01 423.64 84.40 420.42 87.74 Z" />
</g>
<g id="#fffefdff">
<path fill="#fffefd" opacity="1.00" d=" M 420.42 87.74 C 423.64 84.40 427.69 87.01 430.68 89.18 C 428.86 111.95 423.63 134.90 425.53 157.88 C 434.09 150.72 441.18 141.44 451.06 135.84 C 455.51 134.87 459.09 138.97 461.87 141.91 C 458.04 148.73 450.45 152.50 444.92 157.89 C 439.09 163.51 434.04 169.88 429.39 176.49 C 427.78 178.92 424.46 177.75 423.00 175.82 C 416.89 169.90 416.72 160.90 416.36 152.98 C 416.18 137.63 418.12 122.35 419.84 107.13 C 412.37 113.30 406.88 121.51 399.99 128.15 C 396.50 126.07 392.70 123.75 390.76 120.04 C 391.23 118.82 391.64 117.57 392.18 116.37 C 393.77 114.78 395.05 112.93 396.01 110.89 C 397.06 109.64 398.13 108.42 399.19 107.18 C 405.84 100.25 413.04 93.87 420.42 87.74 Z" />
<path fill="#fffefd" opacity="1.00" d=" M 378.68 147.78 C 380.69 146.17 382.89 148.02 384.76 148.86 C 383.15 162.88 380.50 176.97 381.23 191.11 C 386.31 187.37 390.16 182.01 395.58 178.60 C 398.51 175.88 402.21 179.47 403.86 181.94 C 396.62 188.73 388.60 194.78 383.20 203.29 C 379.05 204.37 377.10 198.63 376.32 195.47 C 375.01 183.64 376.43 171.72 377.94 159.98 C 373.39 163.94 369.71 168.74 365.75 173.25 C 364.76 172.52 363.72 171.87 362.72 171.17 C 360.30 168.66 361.50 165.47 362.81 162.75 C 367.47 157.14 373.02 152.34 378.68 147.78 Z" />
</g>
<g id="#d0c777fe">
<path fill="#d0c777" opacity="1.00" d=" M 130.34 107.89 C 131.00 106.74 131.75 105.65 132.49 104.55 C 132.82 107.58 131.42 110.26 128.80 111.78 C 129.34 110.49 129.83 109.19 130.34 107.89 Z" />
</g>
<g id="#1a4f70f2">
<path fill="#1a4f70" opacity="0.95" d=" M 121.47 111.93 C 124.08 109.56 126.84 107.27 130.14 105.91 C 130.19 106.41 130.29 107.40 130.34 107.89 C 129.83 109.19 129.34 110.49 128.80 111.78 L 128.28 112.32 C 128.14 111.49 127.88 109.82 127.75 108.99 C 126.28 109.93 124.87 110.97 123.48 112.03 C 122.98 112.00 121.97 111.95 121.47 111.93 Z" />
</g>
<g id="#17517bff">
<path fill="#17517b" opacity="1.00" d=" M 389.27 119.99 C 390.78 114.69 393.71 107.82 399.16 106.02 L 399.19 107.18 C 398.13 108.42 397.06 109.64 396.01 110.89 C 394.41 112.47 392.93 114.21 392.18 116.37 C 391.64 117.57 391.23 118.82 390.76 120.04 C 390.39 120.03 389.65 120.00 389.27 119.99 Z" />
</g>
<g id="#9ac0d6ff">
<path fill="#9ac0d6" opacity="1.00" d=" M 392.18 116.37 C 392.93 114.21 394.41 112.47 396.01 110.89 C 395.05 112.93 393.77 114.78 392.18 116.37 Z" />
</g>
<g id="#0b476cee">
<path fill="#0b476c" opacity="0.93" d=" M 110.52 119.87 C 112.03 118.02 114.03 116.75 116.17 115.76 C 115.18 118.15 112.77 119.05 110.52 119.87 Z" />
</g>
<g id="#1e3b4dae">
<path fill="#1e3b4d" opacity="0.68" d=" M 464.00 115.93 C 465.70 132.87 465.41 150.10 463.99 167.06 C 464.47 150.02 464.72 132.96 464.00 115.93 Z" />
</g>
<g id="#436c74ff">
<path fill="#436c74" opacity="1.00" d=" M 121.52 130.37 C 121.02 126.51 122.07 122.52 125.17 120.00 C 124.27 123.56 123.30 127.13 121.52 130.37 Z" />
</g>
<g id="#044774ef">
<path fill="#044774" opacity="0.94" d=" M 100.63 127.58 C 101.19 126.16 102.38 125.21 103.79 124.71 C 104.31 126.72 102.48 128.02 100.63 127.58 Z" />
</g>
<g id="#09476ef2">
<path fill="#09476e" opacity="0.95" d=" M 84.67 142.05 C 89.15 136.67 94.25 131.64 100.22 127.92 C 95.86 133.28 90.61 138.48 84.67 142.05 Z" />
</g>
<g id="#18547aff">
<path fill="#18547a" opacity="1.00" d=" M 248.26 129.58 C 249.48 133.90 248.57 140.26 243.38 141.33 C 239.91 142.07 234.90 143.83 232.28 140.54 C 236.91 140.91 242.20 141.18 246.02 138.07 C 247.25 135.40 247.54 132.41 248.26 129.58 Z" />
</g>
<g id="#acbcccff">
<path fill="#acbccc" opacity="1.00" d=" M 319.73 138.17 C 329.54 139.77 338.48 135.01 347.93 133.67 C 352.32 138.06 348.79 145.15 347.57 150.35 C 347.29 150.81 346.94 151.21 346.54 151.56 C 342.90 152.52 339.70 154.73 336.00 155.42 C 330.36 155.80 325.47 152.52 322.05 148.32 C 321.98 148.74 321.85 149.57 321.78 149.99 C 321.16 149.20 320.57 148.38 320.24 147.43 C 320.07 144.34 319.34 141.27 319.73 138.17 Z" />
<path fill="#acbccc" opacity="1.00" d=" M 144.86 306.19 C 146.92 305.22 148.61 307.16 147.62 309.13 C 146.18 308.74 145.17 307.64 144.86 306.19 Z" />
<path fill="#acbccc" opacity="1.00" d=" M 202.96 387.10 L 203.76 387.46 C 204.23 387.68 205.16 388.12 205.63 388.34 C 206.18 388.60 207.29 389.14 207.84 389.40 C 208.06 389.57 208.48 389.91 208.69 390.09 C 209.84 391.24 211.34 391.97 212.99 392.04 C 214.18 392.86 215.36 393.69 216.54 394.54 C 214.81 395.45 212.90 395.85 210.95 395.92 C 212.63 395.65 216.02 395.28 213.93 392.88 C 209.91 391.77 206.31 389.53 202.96 387.10 Z" />
</g>
<g id="#ffc750ff">
<path fill="#ffc750" opacity="1.00" d=" M 225.28 135.70 C 225.77 135.85 226.76 136.15 227.25 136.30 C 227.69 138.21 227.86 140.17 227.95 142.12 C 228.23 152.03 226.74 161.98 227.81 171.85 C 225.50 168.65 227.29 164.35 226.48 160.71 C 226.09 160.53 225.30 160.17 224.91 160.00 C 224.09 151.89 225.79 143.82 225.28 135.70 Z" />
</g>
<g id="#155179ff">
<path fill="#155179" opacity="1.00" d=" M 376.25 147.32 C 378.98 144.52 384.77 144.79 385.77 149.13 L 384.76 148.86 C 382.89 148.02 380.69 146.17 378.68 147.78 C 373.02 152.34 367.47 157.14 362.81 162.75 C 360.19 165.07 358.44 169.57 362.72 171.17 C 363.72 171.87 364.76 172.52 365.75 173.25 L 366.49 173.86 C 362.58 176.15 356.87 169.39 359.04 165.09 C 363.30 157.88 370.09 152.79 376.25 147.32 Z" />
</g>
<g id="#fffeffff">
<path fill="#fffeff" opacity="1.00" d=" M 322.05 148.32 C 325.47 152.52 330.36 155.80 336.00 155.42 C 339.70 154.73 342.90 152.52 346.54 151.56 C 339.77 158.53 327.64 157.70 321.78 149.99 C 321.85 149.57 321.98 148.74 322.05 148.32 Z" />
<path fill="#fffeff" opacity="1.00" d=" M 298.56 409.45 C 299.15 409.20 300.35 408.69 300.95 408.44 C 303.44 410.61 302.75 414.08 302.88 417.01 C 302.91 423.78 304.41 430.49 303.89 437.27 C 301.90 438.21 299.81 436.67 299.53 434.65 C 298.17 426.34 297.59 417.84 298.56 409.45 Z" />
<path fill="#fffeff" opacity="1.00" d=" M 145.79 416.56 C 150.17 414.50 156.79 419.09 155.08 424.00 C 151.84 422.94 148.06 419.63 144.96 422.99 C 139.13 429.33 138.99 438.85 139.56 446.99 C 139.98 450.04 141.25 454.48 145.03 454.56 C 149.54 452.27 151.95 447.00 152.15 442.08 L 152.21 440.93 C 149.90 440.85 147.59 440.80 145.28 440.72 L 144.41 439.88 C 146.87 436.35 151.83 436.72 155.64 436.06 C 155.97 436.31 156.62 436.79 156.95 437.04 C 155.34 444.87 159.16 454.70 153.88 461.16 C 151.71 458.66 152.12 455.16 151.76 452.11 C 148.81 457.99 140.34 461.40 135.48 455.71 C 130.75 447.35 132.23 436.93 135.00 428.14 C 137.20 423.29 140.18 417.90 145.79 416.56 Z" />
</g>
<g id="#f4d667ff">
<path fill="#f4d667" opacity="1.00" d=" M 114.36 159.62 C 114.25 158.28 114.46 156.92 115.25 155.80 C 116.33 157.05 116.26 159.26 114.36 159.62 Z" />
</g>
<g id="#a7cadeff">
<path fill="#a7cade" opacity="1.00" d=" M 362.72 171.17 C 358.44 169.57 360.19 165.07 362.81 162.75 C 361.50 165.47 360.30 168.66 362.72 171.17 Z" />
</g>
<g id="#1e445ead">
<path fill="#1e445e" opacity="0.68" d=" M 458.93 206.82 C 460.74 194.49 461.62 182.02 463.87 169.76 C 461.47 203.53 455.37 237.24 445.94 269.81 C 444.17 273.73 443.14 277.94 442.48 282.18 C 440.90 287.96 439.38 293.92 436.64 299.27 C 440.41 283.87 444.67 268.57 449.44 253.45 C 453.42 238.05 455.50 222.32 458.93 206.82 Z" />
</g>
<g id="#f29220ff">
<path fill="#f29220" opacity="1.00" d=" M 184.74 200.81 C 191.86 192.82 188.48 180.93 192.04 171.84 C 194.06 172.67 193.80 175.18 194.30 176.96 C 195.80 185.56 196.26 195.07 191.95 202.97 C 188.80 208.51 180.95 209.70 175.97 205.97 C 167.19 198.53 162.18 186.53 163.21 175.08 C 167.66 178.38 168.17 185.72 171.62 190.35 C 174.60 194.89 178.30 202.34 184.74 200.81 Z" />
</g>
<g id="#4b6662ff">
<path fill="#4b6662" opacity="1.00" d=" M 231.99 177.75 C 234.10 179.07 236.08 180.78 235.64 183.55 C 234.23 181.74 233.04 179.78 231.99 177.75 Z" />
</g>
<g id="#ffffffff">
<path fill="#ffffff" opacity="1.00" d=" M 352.13 186.95 C 353.42 185.59 356.62 186.73 355.71 188.95 C 354.60 196.49 353.83 204.07 353.66 211.69 C 358.17 210.56 361.68 200.72 366.94 206.01 C 363.32 210.82 357.99 214.96 354.00 219.68 C 347.55 212.92 351.97 202.40 351.67 194.09 C 348.88 196.25 347.28 199.71 344.23 201.57 C 343.33 200.40 341.18 199.68 341.50 197.92 C 343.99 193.36 348.39 190.39 352.13 186.95 Z" />
<path fill="#ffffff" opacity="1.00" d=" M 378.00 384.16 C 379.39 381.00 377.56 372.82 383.10 374.80 C 383.92 377.62 382.95 380.64 383.13 383.56 C 386.15 383.20 389.19 383.03 392.23 383.24 C 389.77 385.41 386.05 384.63 383.23 386.12 C 382.67 397.47 382.70 409.10 384.57 420.32 C 385.26 422.81 386.59 425.12 386.89 427.73 C 383.73 428.26 380.11 427.51 379.10 424.05 C 376.82 412.40 377.93 400.53 377.71 388.77 C 377.70 388.34 377.69 387.48 377.68 387.05 C 375.71 387.22 373.75 387.49 371.80 387.76 C 370.16 388.03 368.51 387.87 366.88 387.68 C 368.41 386.38 370.39 385.97 372.30 385.56 C 373.52 385.33 374.76 385.13 375.97 384.78 C 376.48 384.63 377.49 384.31 378.00 384.16 Z" />
<path fill="#ffffff" opacity="1.00" d=" M 339.90 380.88 C 341.09 380.83 342.29 380.80 343.48 380.78 C 343.83 381.99 344.12 383.22 344.38 384.47 C 344.83 389.37 344.74 394.29 345.14 399.20 C 345.94 406.05 344.89 413.14 346.62 419.85 C 347.59 415.34 347.02 410.65 348.23 406.17 C 349.54 402.02 350.78 396.79 355.01 394.74 C 359.94 394.04 360.94 399.87 361.23 403.49 C 361.30 411.43 362.14 419.33 362.90 427.22 C 361.12 428.32 359.46 426.88 357.88 426.20 C 356.64 422.83 355.66 419.35 355.18 415.80 C 354.97 410.40 355.40 404.99 354.94 399.60 C 354.29 400.40 353.71 401.25 353.20 402.14 C 350.37 410.00 350.15 418.45 348.25 426.53 C 347.03 428.60 345.11 431.23 342.37 430.70 C 338.12 414.60 339.29 397.36 339.90 380.88 Z" />
<path fill="#ffffff" opacity="1.00" d=" M 289.72 396.97 C 290.14 395.91 289.75 393.41 291.27 393.38 C 293.07 406.18 295.12 419.33 294.24 432.25 C 294.05 432.60 293.67 433.32 293.48 433.68 C 292.45 433.73 291.44 433.73 290.42 433.69 C 283.22 427.03 277.93 418.74 272.03 411.00 C 271.92 421.53 276.88 434.16 268.63 442.80 C 265.93 442.63 265.50 439.09 265.20 436.96 C 264.95 425.38 263.77 413.78 264.27 402.20 C 265.40 401.67 266.64 401.50 267.97 401.71 C 276.95 408.75 281.79 419.79 290.49 426.86 C 289.94 416.91 289.76 406.93 289.72 396.97 Z" />
<path fill="#ffffff" opacity="1.00" d=" M 236.61 397.75 C 237.68 397.37 238.75 396.99 239.82 396.58 C 241.51 400.21 240.35 404.17 240.16 407.96 C 239.62 419.96 240.02 431.97 240.63 443.95 C 241.22 447.08 237.65 448.97 235.46 446.63 L 235.42 445.92 C 235.32 443.93 235.19 441.95 235.00 439.97 C 234.45 440.10 233.33 440.34 232.77 440.46 L 231.86 440.65 C 229.40 440.93 226.91 440.78 224.45 440.53 C 224.05 440.44 223.24 440.27 222.83 440.18 C 219.39 439.00 215.17 437.72 213.77 433.98 C 211.89 427.75 214.60 419.16 221.70 417.84 C 223.09 417.85 224.47 417.90 225.86 418.00 C 228.78 418.67 231.47 420.04 234.23 421.17 C 234.53 413.33 235.03 405.43 236.61 397.75 M 218.38 431.64 C 222.16 436.42 228.96 436.37 234.50 436.46 C 236.44 428.85 228.08 422.53 221.06 424.83 C 218.45 425.78 217.62 429.18 218.38 431.64 Z" />
<path fill="#ffffff" opacity="1.00" d=" M 195.07 421.07 C 197.79 419.19 201.13 417.66 204.49 418.66 C 208.66 421.64 209.38 427.05 210.17 431.73 C 210.17 434.37 210.14 437.02 209.98 439.66 C 208.63 447.72 201.67 457.14 192.46 453.34 C 183.04 447.15 186.44 433.43 191.32 425.31 C 192.50 423.84 193.76 422.43 195.07 421.07 M 194.69 444.02 C 195.79 448.66 202.51 450.14 205.20 446.13 C 208.76 440.15 208.10 432.57 205.67 426.30 C 204.84 424.00 202.49 422.15 199.98 422.60 C 195.05 428.36 193.35 436.66 194.69 444.02 Z" />
</g>
<g id="#4ea6d8ff">
<path fill="#4ea6d8" opacity="1.00" d=" M 240.39 191.31 C 240.45 191.40 240.55 191.57 240.61 191.66 C 240.55 191.57 240.45 191.40 240.39 191.31 Z" />
</g>
<g id="#b0911dff">
<path fill="#b0911d" opacity="1.00" d=" M 240.61 191.66 C 240.96 191.89 241.66 192.36 242.01 192.60 L 241.98 193.65 L 241.01 193.26 C 240.91 192.86 240.71 192.06 240.61 191.66 Z" />
</g>
<g id="#1a496bff">
<path fill="#1a496b" opacity="1.00" d=" M 108.45 224.10 C 108.45 216.11 106.50 207.56 108.69 199.88 C 109.03 207.94 108.99 216.06 108.45 224.10 Z" />
</g>
<g id="#a4d4b3ff">
<path fill="#a4d4b3" opacity="1.00" d=" M 406.10 207.48 C 404.32 205.02 408.49 204.65 407.18 207.39 L 406.10 207.48 Z" />
</g>
<g id="#8f781aff">
<path fill="#8f781a" opacity="1.00" d=" M 251.38 208.34 C 251.43 208.44 251.52 208.63 251.57 208.73 C 251.52 208.63 251.43 208.44 251.38 208.34 Z" />
</g>
<g id="#786b4288">
<path fill="#786b42" opacity="0.53" d=" M 61.74 209.20 L 62.04 209.48 C 62.93 210.31 63.85 211.12 64.76 211.94 L 65.00 212.83 C 64.47 212.65 63.41 212.29 62.88 212.11 C 62.78 212.39 62.60 212.96 62.50 213.25 C 60.87 217.85 63.64 223.05 61.41 227.54 C 58.38 230.88 54.18 232.90 51.05 236.15 C 54.93 238.30 59.50 238.65 63.55 240.44 C 65.84 244.73 66.38 249.58 67.66 254.20 C 68.25 254.41 69.42 254.83 70.00 255.04 C 70.29 255.24 70.88 255.63 71.17 255.83 C 69.70 255.96 68.12 256.33 66.76 255.56 C 65.41 250.78 64.75 245.64 62.85 241.13 C 58.99 239.40 54.22 239.61 50.36 237.37 C 51.06 230.73 62.62 229.80 61.60 222.01 C 60.87 217.64 60.80 213.51 61.74 209.20 Z" />
</g>
<g id="#e2d48dfd">
<path fill="#e2d48d" opacity="1.00" d=" M 62.88 212.11 C 63.41 212.29 64.47 212.65 65.00 212.83 C 66.95 215.32 69.38 217.36 71.60 219.60 L 72.07 220.58 C 73.78 221.26 75.71 221.03 77.50 221.34 C 70.87 225.15 67.47 215.92 62.50 213.25 C 62.60 212.96 62.78 212.39 62.88 212.11 Z" />
</g>
<g id="#3e686aff">
<path fill="#3e686a" opacity="1.00" d=" M 64.76 211.94 C 67.83 213.55 71.12 215.88 71.60 219.60 C 69.38 217.36 66.95 215.32 65.00 212.83 L 64.76 211.94 Z" />
</g>
<g id="#f29420ff">
<path fill="#f29420" opacity="1.00" d=" M 112.29 211.95 C 114.90 221.32 117.27 230.79 121.21 239.73 C 141.23 286.96 187.33 320.68 237.37 329.54 C 272.06 335.22 308.27 330.87 340.86 317.81 C 357.71 310.62 374.61 301.78 386.61 287.57 C 400.55 269.95 405.18 246.79 406.52 224.85 C 409.62 240.27 407.49 256.25 406.88 271.87 C 405.41 285.81 403.38 300.30 394.99 312.00 C 393.55 314.94 389.19 317.28 390.83 320.96 C 389.89 322.07 388.85 323.10 387.78 324.08 C 382.08 324.24 378.94 329.71 374.74 332.73 C 371.35 335.00 367.80 337.08 364.82 339.90 C 363.98 340.35 363.16 340.80 362.33 341.25 C 352.76 346.82 342.71 351.43 332.56 355.82 C 330.76 356.58 328.92 357.28 327.06 357.88 C 317.06 360.76 306.66 362.33 296.84 365.66 L 296.14 365.97 C 283.43 365.21 270.63 367.44 257.96 365.42 C 249.22 364.96 241.25 360.72 232.56 360.14 L 232.05 359.96 C 230.49 358.84 228.89 357.75 227.03 357.23 C 214.06 352.76 202.43 345.15 189.78 340.02 C 181.73 333.66 172.89 328.39 164.87 321.97 L 164.21 321.51 C 153.88 311.32 142.65 301.69 134.27 289.65 C 127.24 279.28 120.93 268.26 117.24 256.24 C 114.79 241.65 112.02 226.89 112.29 211.95 Z" />
</g>
<g id="#1c4f66ff">
<path fill="#1c4f66" opacity="1.00" d=" M 408.64 212.06 C 409.30 213.09 410.34 214.01 410.39 215.33 C 412.23 231.49 413.33 247.96 411.46 264.15 C 410.73 252.42 410.91 240.64 411.38 228.91 C 411.54 227.05 410.89 225.30 410.19 223.62 C 409.63 219.77 409.11 215.92 408.64 212.06 Z" />
</g>
<g id="#ffcd5eff">
<path fill="#ffcd5e" opacity="1.00" d=" M 61.41 227.54 C 63.64 223.05 60.87 217.85 62.50 213.25 C 67.47 215.92 70.87 225.15 77.50 221.34 C 75.71 221.03 73.78 221.26 72.07 220.58 C 74.80 220.69 77.52 220.28 80.15 219.52 C 82.81 219.12 85.50 218.88 88.19 218.63 C 88.24 223.28 82.68 226.00 83.51 230.66 C 83.28 230.89 82.81 231.36 82.58 231.59 C 85.62 234.71 89.67 237.56 90.55 242.10 C 87.11 242.14 83.66 241.91 80.22 242.00 C 79.84 241.85 79.10 241.55 78.73 241.40 C 78.07 239.76 74.32 238.62 74.80 241.32 L 74.70 241.81 C 71.75 245.58 71.34 250.58 70.00 255.04 C 69.42 254.83 68.25 254.41 67.66 254.20 C 66.38 249.58 65.84 244.73 63.55 240.44 C 59.50 238.65 54.93 238.30 51.05 236.15 C 54.18 232.90 58.38 230.88 61.41 227.54 Z" />
<path fill="#ffcd5e" opacity="1.00" d=" M 132.08 289.92 C 132.63 289.85 133.72 289.71 134.27 289.65 C 142.65 301.69 153.88 311.32 164.21 321.51 C 163.74 321.66 162.80 321.94 162.34 322.08 C 161.78 321.76 160.66 321.12 160.10 320.81 C 159.90 320.58 159.48 320.12 159.28 319.90 C 157.64 317.72 155.64 315.86 153.27 314.51 C 153.00 314.31 152.44 313.93 152.17 313.73 C 151.43 312.37 150.38 311.22 149.02 310.48 C 148.74 310.28 148.18 309.90 147.91 309.70 L 147.62 309.13 C 148.61 307.16 146.92 305.22 144.86 306.19 C 144.66 305.95 144.25 305.46 144.05 305.22 C 143.82 304.95 143.37 304.42 143.14 304.16 C 139.47 299.40 135.03 295.21 132.08 289.92 Z" />
<path fill="#ffcd5e" opacity="1.00" d=" M 374.74 332.73 C 378.94 329.71 382.08 324.24 387.78 324.08 C 385.94 326.04 384.11 328.02 382.16 329.88 C 379.23 331.60 376.62 333.76 374.00 335.91 C 372.42 335.18 370.83 336.32 371.05 338.05 C 370.86 338.12 370.48 338.26 370.29 338.34 C 368.41 338.65 366.56 339.14 364.82 339.90 C 367.80 337.08 371.35 335.00 374.74 332.73 Z" />
</g>
<g id="#606e46ff">
<path fill="#606e46" opacity="1.00" d=" M 80.15 219.52 C 82.22 217.66 85.84 217.16 88.19 218.63 C 85.50 218.88 82.81 219.12 80.15 219.52 Z" />
</g>
<g id="#ff960bff">
<path fill="#ff960b" opacity="1.00" d=" M 254.02 222.87 C 255.37 222.49 256.73 222.15 258.10 221.82 C 257.74 222.46 257.03 223.73 256.67 224.36 C 256.60 224.44 256.46 224.60 256.39 224.69 L 256.19 224.91 C 253.86 225.95 251.91 227.55 250.62 229.76 C 250.34 229.88 249.76 230.12 249.48 230.24 C 247.87 229.87 247.00 230.48 246.85 232.07 L 246.16 232.33 C 244.83 232.71 243.69 233.51 242.59 234.33 C 241.90 234.30 241.20 234.26 240.52 234.21 C 243.32 228.85 249.42 226.47 254.02 222.87 Z" />
</g>
<g id="#5995d1ff">
<path fill="#5995d1" opacity="1.00" d=" M 398.77 223.76 C 399.08 223.33 399.70 222.48 400.01 222.05 C 399.89 222.56 399.63 223.58 399.50 224.08 L 398.77 223.76 Z" />
</g>
<g id="#f19225ff">
<path fill="#f19225" opacity="1.00" d=" M 234.79 230.94 C 239.94 226.10 247.38 224.65 254.02 222.87 C 249.42 226.47 243.32 228.85 240.52 234.21 C 238.28 233.82 236.39 232.48 234.79 230.94 Z" />
</g>
<g id="#6daad7ff">
<path fill="#6daad7" opacity="1.00" d=" M 256.39 224.69 C 256.46 224.60 256.60 224.44 256.67 224.36 C 256.60 224.44 256.46 224.60 256.39 224.69 Z" />
</g>
<g id="#4e6c54ff">
<path fill="#4e6c54" opacity="1.00" d=" M 397.24 226.49 C 396.68 224.89 397.20 223.98 398.77 223.76 C 399.33 225.25 398.82 226.16 397.24 226.49 Z" />
</g>
<g id="#dec05dff">
<path fill="#dec05d" opacity="1.00" d=" M 398.77 223.76 L 399.50 224.08 C 403.43 226.68 405.89 234.58 400.06 236.22 C 400.81 233.52 401.49 230.80 402.00 228.05 C 401.51 228.69 401.04 229.34 400.59 230.01 C 400.27 229.39 399.61 228.15 399.29 227.53 C 398.06 229.35 396.75 231.15 394.86 232.34 C 395.52 231.05 396.02 229.69 396.48 228.32 C 396.67 227.86 397.05 226.95 397.24 226.49 C 398.82 226.16 399.33 225.25 398.77 223.76 Z" />
</g>
<g id="#c29c59ff">
<path fill="#c29c59" opacity="1.00" d=" M 250.62 229.76 C 251.91 227.55 253.86 225.95 256.19 224.91 L 255.67 226.37 C 254.30 227.91 252.57 229.08 250.62 229.76 Z" />
</g>
<g id="#536863ff">
<path fill="#536863" opacity="1.00" d=" M 250.62 229.76 C 252.57 229.08 254.30 227.91 255.67 226.37 C 253.97 230.81 249.45 233.06 245.52 235.19 C 245.98 238.39 248.13 241.07 248.39 244.33 C 247.35 242.88 246.27 241.46 245.24 240.01 C 244.73 238.41 244.36 236.78 244.13 235.13 C 244.80 234.19 245.46 233.24 246.16 232.33 L 246.85 232.07 C 248.46 232.43 249.34 231.82 249.48 230.24 C 249.76 230.12 250.34 229.88 250.62 229.76 Z" />
</g>
<g id="#235170ff">
<path fill="#235170" opacity="1.00" d=" M 394.86 232.34 C 393.27 230.76 394.18 228.30 396.48 228.32 C 396.02 229.69 395.52 231.05 394.86 232.34 Z" />
</g>
<g id="#fbbe38ff">
<path fill="#fbbe38" opacity="1.00" d=" M 394.86 232.34 C 396.75 231.15 398.06 229.35 399.29 227.53 C 399.61 228.15 400.27 229.39 400.59 230.01 C 393.47 243.44 385.12 256.67 373.04 266.20 C 364.35 276.16 351.68 280.85 339.30 284.17 C 336.84 283.99 334.40 283.75 331.96 283.49 C 334.47 282.86 337.01 282.37 339.53 281.82 C 339.44 281.41 339.26 280.60 339.17 280.20 C 345.57 279.58 351.95 277.40 357.26 273.76 C 357.26 273.43 357.25 272.77 357.25 272.44 C 362.51 269.58 366.99 265.57 371.80 262.13 C 377.08 259.41 381.89 254.59 384.01 248.97 C 384.18 248.75 384.52 248.31 384.70 248.10 C 387.90 247.49 389.31 244.27 389.57 241.34 C 391.23 238.28 392.95 235.25 394.86 232.34 Z" />
</g>
<g id="#e09d3cff">
<path fill="#e09d3c" opacity="1.00" d=" M 246.85 232.07 C 247.00 230.48 247.87 229.87 249.48 230.24 C 249.34 231.82 248.46 232.43 246.85 232.07 Z" />
</g>
<g id="#deb25aff">
<path fill="#deb25a" opacity="1.00" d=" M 242.59 234.33 C 243.69 233.51 244.83 232.71 246.16 232.33 C 245.46 233.24 244.80 234.19 244.13 235.13 C 244.36 236.78 244.73 238.41 245.24 240.01 C 243.85 238.38 243.11 236.38 242.59 234.33 Z" />
</g>
<g id="#f1931fff">
<path fill="#f1931f" opacity="1.00" d=" M 182.86 233.88 C 187.18 235.66 189.72 239.87 193.26 242.73 C 201.06 249.98 211.98 255.54 222.84 252.59 C 228.20 251.70 232.38 246.59 237.88 247.01 C 230.62 258.76 214.28 263.81 202.01 256.92 C 193.25 252.24 184.35 243.97 182.86 233.88 Z" />
</g>
<g id="#2f5f6bff">
<path fill="#2f5f6b" opacity="1.00" d=" M 89.09 236.51 C 92.33 237.27 93.60 240.55 94.66 243.34 C 89.33 247.61 82.45 242.93 76.43 242.55 C 75.48 246.76 74.54 251.20 71.30 254.33 C 71.52 250.01 74.26 246.17 74.70 241.81 L 74.80 241.32 C 76.11 241.42 77.42 241.44 78.73 241.40 C 79.10 241.55 79.84 241.85 80.22 242.00 C 79.96 242.05 79.45 242.16 79.19 242.21 C 83.48 242.23 87.69 243.45 91.99 243.14 C 91.73 240.66 90.32 238.59 89.09 236.51 Z" />
</g>
<g id="#e6db93ff">
<path fill="#e6db93" opacity="1.00" d=" M 74.80 241.32 C 74.32 238.62 78.07 239.76 78.73 241.40 C 77.42 241.44 76.11 241.42 74.80 241.32 Z" />
</g>
<g id="#ffcf4dff">
<path fill="#ffcf4d" opacity="1.00" d=" M 408.84 243.97 C 408.65 242.24 409.57 240.78 410.66 239.53 C 410.88 250.27 410.83 261.03 409.84 271.73 C 409.46 273.78 409.03 275.82 408.85 277.90 C 407.59 293.69 401.87 309.35 390.83 320.96 C 389.19 317.28 393.55 314.94 394.99 312.00 C 403.38 300.30 405.41 285.81 406.88 271.87 C 407.04 273.24 407.27 274.61 407.50 275.97 C 409.76 265.45 408.72 254.63 408.84 243.97 Z" />
<path fill="#ffcf4d" opacity="1.00" d=" M 115.59 256.20 L 117.24 256.24 C 120.93 268.26 127.24 279.28 134.27 289.65 C 133.72 289.71 132.63 289.85 132.08 289.92 L 131.72 289.35 C 130.79 286.49 129.18 283.91 126.84 281.99 C 126.49 281.57 125.79 280.74 125.45 280.33 C 126.10 278.50 125.52 275.86 123.13 276.04 L 122.85 275.28 C 123.30 273.80 122.68 271.90 120.88 271.94 L 120.67 271.28 C 120.57 269.08 120.04 266.97 118.31 265.50 C 117.70 264.16 117.07 262.84 116.47 261.51 C 116.02 259.76 115.66 258.00 115.59 256.20 Z" />
<path fill="#ffcf4d" opacity="1.00" d=" M 189.78 340.02 C 202.43 345.15 214.06 352.76 227.03 357.23 C 228.89 357.75 230.49 358.84 232.05 359.96 C 228.63 359.40 225.39 357.87 221.89 357.91 L 220.93 357.93 L 220.66 357.63 C 218.76 355.37 215.89 354.26 213.03 353.89 C 211.46 353.54 209.74 353.52 208.37 352.59 C 212.38 354.95 212.05 350.18 208.02 352.10 L 207.72 351.45 C 206.73 349.52 204.59 348.91 202.68 348.33 C 202.31 348.22 201.58 348.00 201.22 347.89 C 200.88 345.98 198.85 345.37 197.20 345.95 L 196.82 345.42 C 196.32 344.02 195.36 343.52 193.93 343.93 C 193.44 343.75 192.45 343.39 191.95 343.21 C 191.46 342.88 190.47 342.20 189.98 341.87 L 189.71 341.29 L 189.78 340.02 Z" />
<path fill="#ffcf4d" opacity="1.00" d=" M 332.56 355.82 C 342.71 351.43 352.76 346.82 362.33 341.25 C 360.85 342.80 359.42 344.39 357.88 345.88 L 357.23 345.92 C 355.82 345.83 355.03 346.48 354.84 347.86 L 354.14 348.06 C 351.93 348.61 349.64 349.44 348.29 351.41 L 347.91 351.94 L 347.15 352.00 C 345.73 351.45 344.73 351.87 344.14 353.25 C 343.81 353.44 343.15 353.80 342.82 353.98 C 341.44 353.41 337.13 353.22 339.19 355.63 C 338.91 355.72 338.34 355.91 338.05 356.00 C 336.22 355.98 334.39 355.86 332.56 355.82 Z" />
</g>
<g id="#e5d06bff">
<path fill="#e5d06b" opacity="1.00" d=" M 384.70 248.10 C 386.14 245.72 387.75 243.44 389.57 241.34 C 389.31 244.27 387.90 247.49 384.70 248.10 Z" />
</g>
<g id="#376757ff">
<path fill="#376757" opacity="1.00" d=" M 114.23 254.16 C 114.46 254.60 114.93 255.48 115.16 255.92 C 115.09 256.93 115.84 259.48 114.29 259.56 C 113.07 258.00 114.00 255.89 114.23 254.16 Z" />
</g>
<g id="#f1ba40ff">
<path fill="#f1ba40" opacity="1.00" d=" M 253.51 256.68 L 254.86 256.02 C 256.56 257.44 258.31 258.83 260.22 259.97 C 260.46 260.13 260.96 260.46 261.21 260.62 C 261.54 261.97 262.37 262.50 263.71 262.20 L 263.80 262.59 C 264.65 266.02 268.72 267.34 271.74 268.27 L 272.21 268.58 C 274.05 271.21 277.09 272.36 280.24 272.16 L 280.80 272.20 C 280.77 272.60 280.70 273.40 280.67 273.80 C 282.94 275.10 285.50 276.03 288.15 275.48 C 288.70 275.46 289.79 275.44 290.34 275.43 C 290.61 275.59 291.14 275.90 291.40 276.06 C 293.56 278.60 297.17 278.73 300.11 279.86 C 300.10 280.83 300.10 281.81 300.10 282.79 C 283.20 277.72 263.84 272.05 253.51 256.68 Z" />
</g>
<g id="#6f7944ff">
<path fill="#6f7944" opacity="1.00" d=" M 256.87 256.00 C 257.34 256.36 258.28 257.07 258.75 257.43 C 258.28 257.07 257.34 256.36 256.87 256.00 Z" />
</g>
<g id="#2e4a3eff">
<path fill="#2e4a3e" opacity="1.00" d=" M 376.43 256.71 C 376.50 256.64 376.64 256.50 376.71 256.43 C 376.64 256.50 376.50 256.64 376.43 256.71 Z" />
</g>
<g id="#223d5088">
<path fill="#223d50" opacity="0.53" d=" M 72.44 257.07 C 77.09 262.42 77.78 270.15 81.92 275.94 C 83.44 279.64 85.42 283.13 87.98 286.21 C 92.53 295.44 100.07 302.62 105.75 311.10 C 107.47 313.77 109.63 316.11 111.97 318.24 C 115.51 322.42 119.81 325.90 123.11 330.27 C 121.39 330.53 120.36 328.76 119.26 327.76 C 100.25 308.55 83.57 286.37 73.69 261.04 C 73.28 259.71 72.89 258.38 72.44 257.07 Z" />
</g>
<g id="#426863ff">
<path fill="#426863" opacity="1.00" d=" M 259.23 257.71 C 263.64 259.75 267.12 263.19 271.08 265.93 C 273.90 268.04 278.38 267.96 279.62 271.82 C 277.19 270.65 274.70 269.61 272.21 268.58 L 271.74 268.27 C 269.19 266.24 266.56 264.32 263.80 262.59 L 263.71 262.20 C 263.44 260.84 262.61 260.31 261.21 260.62 C 260.96 260.46 260.46 260.13 260.22 259.97 C 259.97 259.41 259.47 258.28 259.23 257.71 Z" />
</g>
<g id="#9aa990ff">
<path fill="#9aa990" opacity="1.00" d=" M 261.21 260.62 C 262.61 260.31 263.44 260.84 263.71 262.20 C 262.37 262.50 261.54 261.97 261.21 260.62 Z" />
</g>
<g id="#34626bff">
<path fill="#34626b" opacity="1.00" d=" M 116.47 261.51 C 117.07 262.84 117.70 264.16 118.31 265.50 C 118.86 267.51 119.63 269.46 120.67 271.28 L 120.88 271.94 C 120.94 273.32 121.58 274.62 122.85 275.28 L 123.13 276.04 C 123.10 276.48 123.04 277.36 123.01 277.80 C 119.84 272.96 115.81 267.59 116.47 261.51 Z" />
</g>
<g id="#b4b976ff">
<path fill="#b4b976" opacity="1.00" d=" M 118.31 265.50 C 120.04 266.97 120.57 269.08 120.67 271.28 C 119.63 269.46 118.86 267.51 118.31 265.50 Z" />
</g>
<g id="#afbc81ff">
<path fill="#afbc81" opacity="1.00" d=" M 120.88 271.94 C 122.68 271.90 123.30 273.80 122.85 275.28 C 121.58 274.62 120.94 273.32 120.88 271.94 Z" />
</g>
<g id="#2b4a44ff">
<path fill="#2b4a44" opacity="1.00" d=" M 281.77 272.20 C 283.26 271.69 284.19 272.20 284.55 273.73 C 283.28 273.81 282.35 273.30 281.77 272.20 Z" />
</g>
<g id="#67823dff">
<path fill="#67823d" opacity="1.00" d=" M 408.85 277.90 C 409.03 275.82 409.46 273.78 409.84 271.73 C 409.86 274.50 409.89 277.27 409.70 280.04 C 409.49 279.50 409.06 278.43 408.85 277.90 Z" />
</g>
<g id="#4a6e69ff">
<path fill="#4a6e69" opacity="1.00" d=" M 347.79 276.49 C 348.35 273.39 351.93 274.44 354.18 274.03 C 352.20 275.21 350.09 276.19 347.79 276.49 Z" />
</g>
<g id="#5c8cc0ff">
<path fill="#5c8cc0" opacity="1.00" d=" M 288.27 274.87 C 288.79 275.01 289.82 275.29 290.34 275.43 C 289.79 275.44 288.70 275.46 288.15 275.48 L 288.27 274.87 Z" />
</g>
<g id="#0d4368eb">
<path fill="#0d4368" opacity="0.92" d=" M 81.92 275.94 C 84.84 278.76 86.91 282.30 87.98 286.21 C 85.42 283.13 83.44 279.64 81.92 275.94 Z" />
</g>
<g id="#c5bc7cff">
<path fill="#c5bc7c" opacity="1.00" d=" M 123.13 276.04 C 125.52 275.86 126.10 278.50 125.45 280.33 C 124.61 279.50 123.71 278.74 123.01 277.80 C 123.04 277.36 123.10 276.48 123.13 276.04 Z" />
</g>
<g id="#345a51ff">
<path fill="#345a51" opacity="1.00" d=" M 336.21 279.66 C 338.92 277.12 343.01 276.97 346.54 276.76 C 343.38 278.56 339.79 279.34 336.21 279.66 Z" />
</g>
<g id="#6d702fff">
<path fill="#6d702f" opacity="1.00" d=" M 298.86 278.33 C 300.51 277.67 302.72 277.38 303.83 279.12 C 302.12 279.55 300.28 279.45 298.86 278.33 Z" />
</g>
<g id="#f7bf48ff">
<path fill="#f7bf48" opacity="1.00" d=" M 300.11 279.86 C 301.54 279.81 302.97 279.74 304.41 279.67 C 314.83 280.54 325.28 280.94 335.72 280.03 C 336.58 280.07 338.31 280.16 339.17 280.20 C 339.26 280.60 339.44 281.41 339.53 281.82 C 337.01 282.37 334.47 282.86 331.96 283.49 C 334.40 283.75 336.84 283.99 339.30 284.17 C 326.48 287.57 312.79 286.09 300.10 282.79 C 300.10 281.81 300.10 280.83 300.11 279.86 M 312.08 281.42 C 317.16 281.99 324.16 283.28 328.23 281.07 C 322.85 280.94 317.45 280.95 312.08 281.42 Z" />
</g>
<g id="#d4db87ff">
<path fill="#d4db87" opacity="1.00" d=" M 312.08 281.42 C 317.45 280.95 322.85 280.94 328.23 281.07 C 324.16 283.28 317.16 281.99 312.08 281.42 Z" />
</g>
<g id="#2b4752ff">
<path fill="#2b4752" opacity="1.00" d=" M 128.33 285.69 C 128.59 286.23 129.10 287.30 129.36 287.84 C 129.10 287.30 128.59 286.23 128.33 285.69 Z" />
</g>
<g id="#406769ff">
<path fill="#406769" opacity="1.00" d=" M 130.27 288.41 C 130.63 288.65 131.36 289.12 131.72 289.35 L 132.08 289.92 C 135.03 295.21 139.47 299.40 143.14 304.16 C 136.94 301.14 132.35 294.90 130.27 288.41 Z" />
</g>
<g id="#e0be60ff">
<path fill="#e0be60" opacity="1.00" d=" M 311.89 293.41 C 319.93 293.03 327.99 293.26 336.03 293.40 C 328.04 293.95 319.78 295.05 311.89 293.41 Z" />
</g>
<g id="#0c4767ea">
<path fill="#0c4767" opacity="0.92" d=" M 105.75 311.10 C 108.48 312.83 110.91 315.08 111.97 318.24 C 109.63 316.11 107.47 313.77 105.75 311.10 Z" />
</g>
<g id="#215465ff">
<path fill="#215465" opacity="1.00" d=" M 152.17 313.73 C 150.18 314.08 147.60 312.70 149.02 310.48 C 150.38 311.22 151.43 312.37 152.17 313.73 Z" />
</g>
<g id="#567761ff">
<path fill="#567761" opacity="1.00" d=" M 153.27 314.51 C 155.64 315.86 157.64 317.72 159.28 319.90 C 156.50 319.08 154.09 317.41 153.27 314.51 Z" />
</g>
<g id="#26455996">
<path fill="#264559" opacity="0.59" d=" M 427.57 320.18 C 427.87 320.91 428.17 321.65 428.47 322.40 C 423.97 335.07 418.06 347.32 411.67 359.16 L 410.37 359.60 L 410.90 358.18 C 411.27 357.19 411.66 356.20 412.05 355.22 C 413.93 353.05 415.36 350.55 416.03 347.74 C 420.79 338.97 424.70 329.73 427.57 320.18 Z" />
</g>
<g id="#426360ff">
<path fill="#426360" opacity="1.00" d=" M 160.10 320.81 C 160.66 321.12 161.78 321.76 162.34 322.08 C 163.09 323.78 164.65 324.74 166.34 325.34 L 166.75 326.12 C 163.65 325.82 160.93 323.88 160.10 320.81 Z" />
</g>
<g id="#abb78cff">
<path fill="#abb78c" opacity="1.00" d=" M 162.34 322.08 C 162.80 321.94 163.74 321.66 164.21 321.51 L 164.87 321.97 C 165.47 323.04 165.92 324.19 166.34 325.34 C 164.65 324.74 163.09 323.78 162.34 322.08 Z" />
</g>
<g id="#406a67ff">
<path fill="#406a67" opacity="1.00" d=" M 167.18 326.52 C 172.01 329.30 176.46 332.69 180.98 335.94 C 181.49 337.07 182.37 337.63 183.62 337.62 C 185.42 339.20 187.52 340.34 189.71 341.29 L 189.98 341.87 C 190.47 342.20 191.46 342.88 191.95 343.21 C 192.45 343.39 193.44 343.75 193.93 343.93 C 194.53 345.16 195.50 345.65 196.82 345.42 L 197.20 345.95 C 198.00 347.40 199.64 347.95 201.22 347.89 C 201.58 348.00 202.31 348.22 202.68 348.33 C 203.04 348.79 203.76 349.71 204.11 350.17 C 196.28 349.00 190.19 343.20 183.28 339.74 C 178.45 334.61 170.98 332.71 167.18 326.52 Z" />
</g>
<g id="#3f6868ff">
<path fill="#3f6868" opacity="1.00" d=" M 374.00 335.91 C 376.62 333.76 379.23 331.60 382.16 329.88 C 377.15 337.55 368.30 343.52 359.64 345.80 C 363.02 343.07 366.94 341.11 370.29 338.34 C 370.48 338.26 370.86 338.12 371.05 338.05 C 372.32 337.83 373.48 337.14 374.00 335.91 Z" />
</g>
<g id="#273e4b75">
<path fill="#273e4b" opacity="0.46" d=" M 128.28 335.47 C 128.65 335.64 129.40 335.97 129.78 336.13 C 131.56 338.15 133.59 339.94 135.88 341.36 C 136.90 342.22 137.91 343.07 138.93 343.93 C 144.17 349.59 150.45 354.35 157.15 358.14 C 166.06 365.35 175.90 371.43 185.77 377.22 C 189.63 379.97 193.74 382.39 198.18 384.07 C 199.45 384.82 200.71 385.59 201.94 386.41 L 202.45 387.43 C 176.37 375.16 152.58 358.08 130.94 339.11 C 129.93 338.03 128.22 337.15 128.28 335.47 Z" />
</g>
<g id="#084267ef">
<path fill="#084267" opacity="0.94" d=" M 129.78 336.13 C 132.58 336.82 134.52 338.93 135.88 341.36 C 133.59 339.94 131.56 338.15 129.78 336.13 Z" />
</g>
<g id="#b6c396ff">
<path fill="#b6c396" opacity="1.00" d=" M 180.98 335.94 C 182.50 335.50 183.38 336.06 183.62 337.62 C 182.37 337.63 181.49 337.07 180.98 335.94 Z" />
</g>
<g id="#7ba7a4ff">
<path fill="#7ba7a4" opacity="1.00" d=" M 189.98 341.87 C 190.47 342.20 191.46 342.88 191.95 343.21 C 191.46 342.88 190.47 342.20 189.98 341.87 Z" />
</g>
<g id="#0d496dea">
<path fill="#0d496d" opacity="0.92" d=" M 138.93 343.93 C 145.51 347.90 151.71 352.71 157.15 358.14 C 150.45 354.35 144.17 349.59 138.93 343.93 Z" />
</g>
<g id="#becc94ff">
<path fill="#becc94" opacity="1.00" d=" M 193.93 343.93 C 195.36 343.52 196.32 344.02 196.82 345.42 C 195.50 345.65 194.53 345.16 193.93 343.93 Z" />
</g>
<g id="#b5be86ff">
<path fill="#b5be86" opacity="1.00" d=" M 197.20 345.95 C 198.85 345.37 200.88 345.98 201.22 347.89 C 199.64 347.95 198.00 347.40 197.20 345.95 Z" />
</g>
<g id="#dfcf83ff">
<path fill="#dfcf83" opacity="1.00" d=" M 354.84 347.86 C 355.03 346.48 355.82 345.83 357.23 345.92 C 357.10 347.28 356.30 347.92 354.84 347.86 Z" />
</g>
<g id="#476961ff">
<path fill="#476961" opacity="1.00" d=" M 357.23 345.92 L 357.88 345.88 L 358.85 345.85 C 359.06 346.22 359.49 346.98 359.70 347.35 C 357.56 349.19 354.80 349.86 352.09 350.28 C 352.76 349.53 353.44 348.79 354.14 348.06 L 354.84 347.86 C 356.30 347.92 357.10 347.28 357.23 345.92 Z" />
</g>
<g id="#afbc84ff">
<path fill="#afbc84" opacity="1.00" d=" M 348.29 351.41 C 349.64 349.44 351.93 348.61 354.14 348.06 C 353.44 348.79 352.76 349.53 352.09 350.28 L 351.73 350.67 C 350.47 350.41 349.32 350.66 348.29 351.41 Z" />
</g>
<g id="#044875f0">
<path fill="#044875" opacity="0.94" d=" M 412.05 355.22 C 412.75 352.43 414.05 349.84 416.03 347.74 C 415.36 350.55 413.93 353.05 412.05 355.22 Z" />
</g>
<g id="#526b40ff">
<path fill="#526b40" opacity="1.00" d=" M 204.37 350.53 C 205.65 350.25 206.76 350.56 207.72 351.45 L 208.02 352.10 C 206.56 352.58 204.99 351.94 204.37 350.53 Z" />
</g>
<g id="#506252ff">
<path fill="#506252" opacity="1.00" d=" M 348.29 351.41 C 349.32 350.66 350.47 350.41 351.73 350.67 C 351.06 352.18 349.35 352.63 347.91 351.94 L 348.29 351.41 Z" />
</g>
<g id="#9bb09dff">
<path fill="#9bb09d" opacity="1.00" d=" M 208.02 352.10 C 212.05 350.18 212.38 354.95 208.37 352.59 L 208.02 352.10 Z" />
</g>
<g id="#a4c19bff">
<path fill="#a4c19b" opacity="1.00" d=" M 344.14 353.25 C 344.73 351.87 345.73 351.45 347.15 352.00 L 346.81 352.71 C 346.14 352.85 344.81 353.12 344.14 353.25 Z" />
</g>
<g id="#456b62ff">
<path fill="#456b62" opacity="1.00" d=" M 344.14 353.25 C 344.81 353.12 346.14 352.85 346.81 352.71 C 342.26 357.15 335.10 359.28 328.80 359.99 C 331.64 358.15 334.95 357.28 338.05 356.00 C 338.34 355.91 338.91 355.72 339.19 355.63 C 340.49 355.32 341.68 354.68 342.82 353.98 C 343.15 353.80 343.81 353.44 344.14 353.25 Z" />
</g>
<g id="#43604aff">
<path fill="#43604a" opacity="1.00" d=" M 215.97 355.64 C 214.85 356.29 211.49 356.56 212.77 354.41 C 213.98 354.41 215.05 354.82 215.97 355.64 Z" />
</g>
<g id="#e2cb66ff">
<path fill="#e2cb66" opacity="1.00" d=" M 327.06 357.88 C 328.92 357.28 330.76 356.58 332.56 355.82 C 334.39 355.86 336.22 355.98 338.05 356.00 C 334.95 357.28 331.64 358.15 328.80 359.99 L 328.22 360.32 L 327.12 360.17 C 327.11 359.60 327.08 358.45 327.06 357.88 Z" />
</g>
<g id="#c1c282ff">
<path fill="#c1c282" opacity="1.00" d=" M 221.89 357.91 C 225.39 357.87 228.63 359.40 232.05 359.96 L 232.56 360.14 C 233.75 362.06 236.18 362.11 238.12 362.76 C 236.83 362.80 235.55 362.81 234.27 362.80 C 233.79 362.74 232.84 362.63 232.36 362.57 C 232.01 362.41 231.32 362.09 230.98 361.94 C 229.85 360.73 228.26 360.20 226.65 360.20 L 225.96 359.94 C 224.70 359.12 223.30 358.35 221.74 358.51 L 221.89 357.91 Z" />
</g>
<g id="#f9c645ff">
<path fill="#f9c645" opacity="1.00" d=" M 296.84 365.66 C 306.66 362.33 317.06 360.76 327.06 357.88 C 327.08 358.45 327.11 359.60 327.12 360.17 L 326.12 360.02 C 324.68 359.48 323.67 359.91 323.10 361.30 C 321.99 361.67 320.88 362.05 319.78 362.43 C 318.17 361.58 316.27 361.96 315.09 363.33 C 314.87 363.52 314.42 363.90 314.20 364.09 C 311.89 364.18 309.10 363.68 307.28 365.45 L 306.93 365.72 C 306.23 365.84 304.84 366.09 304.15 366.21 C 302.70 365.71 301.27 365.74 299.85 366.28 C 299.10 366.13 297.59 365.82 296.84 365.66 Z" />
</g>
<g id="#4d674dff">
<path fill="#4d674d" opacity="1.00" d=" M 221.55 359.69 C 221.60 359.40 221.69 358.81 221.74 358.51 C 223.30 358.35 224.70 359.12 225.96 359.94 C 224.52 360.01 222.79 360.73 221.55 359.69 Z" />
</g>
<g id="#4e6b54ff">
<path fill="#4e6b54" opacity="1.00" d=" M 226.65 360.20 C 228.26 360.20 229.85 360.73 230.98 361.94 C 229.26 362.67 227.14 362.20 226.65 360.20 Z" />
</g>
<g id="#f6ca45ff">
<path fill="#f6ca45" opacity="1.00" d=" M 232.56 360.14 C 241.25 360.72 249.22 364.96 257.96 365.42 C 270.63 367.44 283.43 365.21 296.14 365.97 L 296.21 366.75 L 296.29 367.99 C 294.57 367.97 292.87 367.99 291.16 368.07 C 279.82 368.41 268.46 368.56 257.12 368.02 C 256.63 368.02 255.67 368.01 255.18 368.00 C 254.60 367.75 253.43 367.26 252.85 367.01 C 250.87 365.43 248.27 365.37 245.95 366.12 L 245.07 365.79 L 244.74 365.33 C 243.49 362.89 240.41 363.71 238.22 363.79 C 236.91 363.70 235.60 363.64 234.30 363.61 L 234.27 362.80 C 235.55 362.81 236.83 362.80 238.12 362.76 C 236.18 362.11 233.75 362.06 232.56 360.14 Z" />
</g>
<g id="#c8cea2ff">
<path fill="#c8cea2" opacity="1.00" d=" M 323.10 361.30 C 323.67 359.91 324.68 359.48 326.12 360.02 C 325.42 361.13 324.42 361.55 323.10 361.30 Z" />
</g>
<g id="#3c6669ff">
<path fill="#3c6669" opacity="1.00" d=" M 326.12 360.02 L 327.12 360.17 L 328.22 360.32 C 325.92 362.40 322.84 363.04 319.95 363.86 L 319.86 363.15 L 319.78 362.43 C 320.88 362.05 321.99 361.67 323.10 361.30 C 324.42 361.55 325.42 361.13 326.12 360.02 Z" />
</g>
<g id="#cad183ff">
<path fill="#cad183" opacity="1.00" d=" M 315.09 363.33 C 316.27 361.96 318.17 361.58 319.78 362.43 L 319.86 363.15 C 318.28 363.33 316.66 363.65 315.09 363.33 Z" />
</g>
<g id="#173d52ff">
<path fill="#173d52" opacity="1.00" d=" M 232.36 362.57 C 232.84 362.63 233.79 362.74 234.27 362.80 L 234.30 363.61 C 233.81 363.35 232.84 362.83 232.36 362.57 Z" />
</g>
<g id="#9db285ff">
<path fill="#9db285" opacity="1.00" d=" M 238.22 363.79 C 240.41 363.71 243.49 362.89 244.74 365.33 C 243.15 364.90 241.46 364.90 239.85 365.19 C 239.44 364.84 238.62 364.14 238.22 363.79 Z" />
</g>
<g id="#6e772aff">
<path fill="#6e772a" opacity="1.00" d=" M 239.85 365.19 C 241.46 364.90 243.15 364.90 244.74 365.33 L 245.07 365.79 C 243.37 366.53 241.16 366.74 239.85 365.19 Z" />
</g>
<g id="#5c6147ff">
<path fill="#5c6147" opacity="1.00" d=" M 307.28 365.45 C 309.29 364.52 311.55 364.69 313.71 364.63 C 312.01 366.66 309.21 366.50 306.93 365.72 L 307.28 365.45 Z" />
</g>
<g id="#9cb1a0ff">
<path fill="#9cb1a0" opacity="1.00" d=" M 245.95 366.12 C 248.27 365.37 250.87 365.43 252.85 367.01 C 250.88 367.14 248.88 367.35 246.95 366.84 C 246.70 366.66 246.20 366.30 245.95 366.12 Z" />
</g>
<g id="#e1d68bff">
<path fill="#e1d68b" opacity="1.00" d=" M 296.14 365.97 L 296.84 365.66 C 297.59 365.82 299.10 366.13 299.85 366.28 L 299.88 366.86 C 298.62 367.21 297.40 367.17 296.21 366.75 L 296.14 365.97 Z" />
</g>
<g id="#9cb2afff">
<path fill="#9cb2af" opacity="1.00" d=" M 299.85 366.28 C 301.27 365.74 302.70 365.71 304.15 366.21 L 303.82 366.71 C 302.52 367.13 301.21 367.18 299.88 366.86 L 299.85 366.28 Z" />
</g>
<g id="#6e703eff">
<path fill="#6e703e" opacity="1.00" d=" M 246.95 366.84 C 248.88 367.35 250.88 367.14 252.85 367.01 C 253.43 367.26 254.60 367.75 255.18 368.00 C 252.42 367.98 249.46 368.23 246.95 366.84 Z" />
</g>
<g id="#585d36ff">
<path fill="#585d36" opacity="1.00" d=" M 296.21 366.75 C 297.40 367.17 298.62 367.21 299.88 366.86 C 301.21 367.18 302.52 367.13 303.82 366.71 C 301.92 368.70 298.74 367.72 296.29 367.99 L 296.21 366.75 Z" />
</g>
<g id="#0d527aff">
<path fill="#0d527a" opacity="1.00" d=" M 256.16 369.78 C 256.34 369.45 256.71 368.77 256.89 368.43 C 259.43 368.51 261.95 368.81 264.48 369.13 C 270.58 370.93 277.05 369.49 283.31 370.21 C 274.31 371.11 265.13 371.02 256.16 369.78 Z" />
</g>
<g id="#455430ff">
<path fill="#455430" opacity="1.00" d=" M 264.48 369.13 C 272.43 368.85 280.39 369.18 288.34 368.89 C 286.69 369.43 285.03 369.96 283.31 370.21 C 277.05 369.49 270.58 370.93 264.48 369.13 Z" />
</g>
<g id="#0c496def">
<path fill="#0c496d" opacity="0.94" d=" M 185.77 377.22 C 190.45 378.33 194.76 380.69 198.18 384.07 C 193.74 382.39 189.63 379.97 185.77 377.22 Z" />
</g>
<g id="#218a99ff">
<path fill="#218a99" opacity="1.00" d=" M 338.73 379.64 C 340.45 379.19 343.38 378.22 344.37 380.21 L 343.48 380.78 C 342.29 380.80 341.09 380.83 339.90 380.88 L 338.93 380.96 C 338.68 392.76 338.64 404.58 338.93 416.39 C 338.71 416.02 338.25 415.28 338.02 414.92 C 338.17 403.19 336.67 391.19 338.73 379.64 Z" />
</g>
<g id="#248399ff">
<path fill="#248399" opacity="1.00" d=" M 344.38 384.47 L 345.50 383.94 C 345.94 388.82 347.34 394.92 345.14 399.20 C 344.74 394.29 344.83 389.37 344.38 384.47 Z" />
</g>
<g id="#2c8194ff">
<path fill="#2c8194" opacity="1.00" d=" M 372.30 385.56 C 369.82 383.67 375.13 383.19 375.97 384.78 C 374.76 385.13 373.52 385.33 372.30 385.56 Z" />
</g>
<g id="#0d4156f1">
<path fill="#0d4156" opacity="0.95" d=" M 205.63 388.34 C 206.18 388.60 207.29 389.14 207.84 389.40 C 207.29 389.14 206.18 388.60 205.63 388.34 Z" />
</g>
<g id="#084b70f2">
<path fill="#084b70" opacity="0.95" d=" M 208.69 390.09 C 210.53 388.45 212.48 390.06 212.99 392.04 C 211.34 391.97 209.84 391.24 208.69 390.09 Z" />
</g>
<g id="#b7ecf2ff">
<path fill="#b7ecf2" opacity="1.00" d=" M 379.10 424.05 C 375.12 412.89 376.99 400.39 377.71 388.77 C 377.93 400.53 376.82 412.40 379.10 424.05 Z" />
</g>
<g id="#fffefcff">
<path fill="#fffefc" opacity="1.00" d=" M 329.77 398.29 C 330.58 398.37 331.40 398.46 332.22 398.54 C 333.47 402.79 334.01 407.20 334.49 411.59 C 334.50 420.42 334.99 429.36 333.21 438.06 C 331.33 443.85 327.49 449.20 322.00 452.00 C 315.91 454.68 308.33 449.57 308.20 443.02 C 307.64 439.14 308.71 432.72 314.01 433.63 C 314.00 437.55 311.80 442.57 315.39 445.53 C 320.05 446.83 324.09 442.89 325.56 438.81 C 328.14 431.41 328.10 423.47 328.95 415.77 C 327.74 417.12 326.60 418.53 325.39 419.88 C 322.26 423.51 314.22 426.82 311.80 420.94 C 310.62 415.22 315.73 411.05 319.04 407.12 C 321.96 404.87 325.40 403.53 328.63 401.84 C 329.00 400.65 329.38 399.47 329.77 398.29 M 317.36 419.71 C 323.83 418.22 328.15 411.19 329.14 404.91 C 324.04 408.44 318.28 413.24 317.36 419.71 Z" />
</g>
<g id="#448496ff">
<path fill="#448496" opacity="1.00" d=" M 264.34 400.80 C 264.46 399.14 268.39 399.19 268.66 400.70 C 267.30 401.03 265.64 401.47 264.34 400.80 Z" />
</g>
<g id="#2c8999ff">
<path fill="#2c8999" opacity="1.00" d=" M 353.20 402.14 C 353.71 401.25 354.29 400.40 354.94 399.60 C 355.40 404.99 354.97 410.40 355.18 415.80 C 355.08 417.53 354.86 419.26 354.63 420.98 C 352.57 414.85 354.84 408.32 353.20 402.14 Z" />
</g>
<g id="#c2f6fdff">
<path fill="#c2f6fd" opacity="1.00" d=" M 299.17 405.84 C 298.96 404.05 300.11 402.19 302.13 402.98 C 304.01 405.13 301.21 407.45 299.17 405.84 Z" />
</g>
<g id="#1c9baeff">
<path fill="#1c9bae" opacity="1.00" d=" M 317.36 419.71 C 318.28 413.24 324.04 408.44 329.14 404.91 C 328.15 411.19 323.83 418.22 317.36 419.71 Z" />
</g>
<g id="#2b6c78b2">
<path fill="#2b6c78" opacity="0.70" d=" M 438.90 437.81 C 440.73 429.15 441.25 420.27 442.81 411.58 C 442.65 419.43 441.59 427.30 440.74 435.15 C 440.38 436.85 440.10 439.45 437.95 439.75 C 426.83 441.40 415.73 443.50 404.52 444.20 C 404.18 444.04 403.50 443.72 403.16 443.56 C 415.06 441.51 427.27 441.12 438.90 437.81 Z" />
</g>
<g id="#2c636b9d">
<path fill="#2c636b" opacity="0.62" d=" M 79.73 416.75 C 80.79 416.53 81.85 416.35 82.93 416.21 C 81.82 417.39 79.67 418.48 80.35 420.43 C 87.88 438.53 94.96 456.91 100.99 475.56 C 99.58 474.72 99.42 472.89 98.73 471.54 C 93.02 455.48 86.49 439.73 80.37 423.83 C 79.65 421.58 78.19 418.99 79.73 416.75 Z" />
</g>
<g id="#feffffff">
<path fill="#feffff" opacity="1.00" d=" M 161.22 437.56 C 162.97 430.14 168.97 421.56 177.57 422.64 C 178.25 423.14 178.92 423.67 179.58 424.21 C 185.83 433.72 185.26 447.94 176.83 456.05 C 174.06 458.42 170.19 458.10 166.79 458.14 C 159.19 454.45 158.95 444.61 161.22 437.56 M 174.43 426.70 C 168.59 430.96 167.28 440.14 167.97 447.08 C 168.09 452.03 174.61 454.43 178.00 451.02 C 181.91 445.59 181.28 438.29 179.69 432.14 C 178.68 429.96 177.19 426.65 174.43 426.70 Z" />
</g>
<g id="#21a0b5ff">
<path fill="#21a0b5" opacity="1.00" d=" M 194.69 444.02 C 193.35 436.66 195.05 428.36 199.98 422.60 C 202.49 422.15 204.84 424.00 205.67 426.30 C 208.10 432.57 208.76 440.15 205.20 446.13 C 202.51 450.14 195.79 448.66 194.69 444.02 Z" />
</g>
<g id="#229fb7ff">
<path fill="#229fb7" opacity="1.00" d=" M 221.36 432.35 C 217.85 430.58 220.48 425.36 224.00 426.23 C 228.50 425.69 235.67 430.84 232.07 435.38 C 228.51 434.88 225.04 433.79 221.42 433.77 C 221.41 433.41 221.37 432.70 221.36 432.35 Z" />
</g>
<g id="#24a0b6ff">
<path fill="#24a0b6" opacity="1.00" d=" M 175.15 428.20 C 181.01 432.54 179.69 440.65 179.01 446.97 C 177.05 451.85 170.89 451.91 169.06 446.91 C 168.74 440.39 170.08 432.76 175.15 428.20 Z" />
</g>
<g id="#2f8597ff">
<path fill="#2f8597" opacity="1.00" d=" M 232.77 440.46 C 233.33 440.34 234.45 440.10 235.00 439.97 C 235.19 441.95 235.32 443.93 235.42 445.92 C 233.53 444.97 233.67 442.20 232.77 440.46 Z" />
</g>
<g id="#3c8390ff">
<path fill="#3c8390" opacity="1.00" d=" M 143.94 441.69 C 144.28 441.45 144.95 440.96 145.28 440.72 C 147.59 440.80 149.90 440.85 152.21 440.93 L 152.15 442.08 C 149.41 442.29 146.65 442.15 143.94 441.69 Z" />
</g>
<g id="#297d88ff">
<path fill="#297d88" opacity="1.00" d=" M 224.45 440.53 C 226.91 440.78 229.40 440.93 231.86 440.65 L 232.02 441.94 C 229.32 442.25 226.58 442.10 223.91 441.65 L 224.45 440.53 Z" />
</g>
</svg>
