<?xml version="1.0" standalone="no"?><!DOCTYPE svg PUBLIC "-//W3C//DTD SVG 1.1//EN"
        "http://www.w3.org/Graphics/SVG/1.1/DTD/svg11.dtd">
<svg class="icon" width="200px" height="200.00px" viewBox="0 0 1024 1024" version="1.1"
     xmlns="http://www.w3.org/2000/svg">
    <path d="M761.6 332.8v324.6592l-50.4256 50.4256a19.2 19.2 0 1 0 27.1552 27.1488l54.304-54.304 0.0448-0.0448A19.168 19.168 0 0 0 800 665.6V332.8h12.8a25.6 25.6 0 1 0 0-51.2h-64a25.6 25.6 0 1 0 0 51.2h12.8zM179.2 185.6h665.6c42.4128 0 76.8 34.3872 76.8 76.8v499.2c0 42.4128-34.3872 76.8-76.8 76.8H179.2c-42.4128 0-76.8-34.3872-76.8-76.8V262.4c0-42.4128 34.3872-76.8 76.8-76.8z m230.4 556.8c127.2448 0 230.4-103.1552 230.4-230.4S536.8448 281.6 409.6 281.6 179.2 384.7552 179.2 512s103.1552 230.4 230.4 230.4z m0-25.6c-113.1072 0-204.8-91.6928-204.8-204.8 0-113.1072 91.6928-204.8 204.8-204.8 113.1072 0 204.8 91.6928 204.8 204.8 0 113.1072-91.6928 204.8-204.8 204.8z m0-12.8c106.0416 0 192-85.9584 192-192 0-106.0416-85.9584-192-192-192-106.0416 0-192 85.9584-192 192 0 106.0416 85.9584 192 192 192z m0-140.8a51.2 51.2 0 1 1 0-102.4 51.2 51.2 0 0 1 0 102.4z m0-19.2a32 32 0 1 0 0-64 32 32 0 0 0 0 64z"
          fill="#4D59F5"/>
</svg>