<?xml version="1.0" standalone="no"?><!DOCTYPE svg PUBLIC "-//W3C//DTD SVG 1.1//EN"
        "http://www.w3.org/Graphics/SVG/1.1/DTD/svg11.dtd">
<svg class="icon" width="200px" height="200.00px" viewBox="0 0 1024 1024" version="1.1"
     xmlns="http://www.w3.org/2000/svg">
    <path d="M509.76 746.56l120.32 120.32a61.44 61.44 0 0 0 68.16 13.76A64 64 0 0 0 736 821.44v-256l-262.08 152.32a324.8 324.8 0 0 1 35.84 28.8zM923.52 291.2a49.92 49.92 0 0 0-67.2-17.6L736 342.4V202.56a62.4 62.4 0 0 0-106.88-45.12l-119.68 120A312.32 312.32 0 0 1 288 368a64 64 0 0 0-64 64v160a64 64 0 0 0 14.72 38.4l-151.68 88A48 48 0 0 0 135.68 800l233.92-135.04L736 454.4l168.64-96a48.64 48.64 0 0 0 18.88-67.2z"
          fill="#ffffff"/>
</svg>