<?xml version="1.0" encoding="UTF-8" ?>
<!DOCTYPE svg PUBLIC "-//W3C//DTD SVG 1.1//EN" "http://www.w3.org/Graphics/SVG/1.1/DTD/svg11.dtd">
<svg width="258pt" height="137pt" viewBox="0 0 258 137" version="1.1" xmlns="http://www.w3.org/2000/svg">
<g id="#00151522">
<path fill="#001515" opacity="0.13" d=" M 112.43 0.00 L 119.35 0.00 C 123.99 1.31 128.61 2.68 133.26 3.95 C 130.81 3.59 128.35 3.30 125.90 2.90 C 121.24 2.04 116.54 1.00 111.77 1.38 L 112.43 0.00 Z" />
</g>
<g id="#079ea3ff">
<path fill="#079ea3" opacity="1.00" d=" M 106.90 4.41 C 108.52 3.40 110.16 2.41 111.77 1.38 C 116.54 1.00 121.24 2.04 125.90 2.90 C 126.16 8.57 126.30 14.30 125.04 19.88 C 118.97 14.78 111.48 11.07 106.90 4.41 Z" />
</g>
<g id="#0491aaff">
<path fill="#0491aa" opacity="1.00" d=" M 125.90 2.90 C 128.35 3.30 130.81 3.59 133.26 3.95 C 135.07 4.29 136.90 4.58 138.72 4.86 C 137.41 5.93 135.66 7.03 135.89 8.99 C 135.80 15.78 138.08 22.47 136.83 29.30 C 132.91 26.14 128.99 22.98 125.04 19.88 C 126.30 14.30 126.16 8.57 125.90 2.90 Z" />
</g>
<g id="#0681b3ff">
<path fill="#0681b3" opacity="1.00" d=" M 135.89 8.99 C 135.66 7.03 137.41 5.93 138.72 4.86 C 144.81 5.90 150.99 6.21 157.09 7.08 C 159.12 7.38 162.13 8.36 161.54 11.00 C 159.54 15.28 155.88 18.60 154.25 23.08 C 151.98 28.30 152.77 34.08 152.42 39.60 C 145.91 38.70 141.86 32.91 136.83 29.30 C 138.08 22.47 135.80 15.78 135.89 8.99 Z" />
</g>
<g id="#03a387ff">
<path fill="#03a387" opacity="1.00" d=" M 89.49 5.94 C 92.81 5.67 96.77 4.89 99.40 7.52 C 104.88 12.91 111.01 17.57 117.10 22.24 C 116.80 25.26 113.36 25.58 111.00 26.14 C 104.27 27.15 97.43 26.82 90.65 26.69 C 89.67 20.19 90.25 13.59 89.61 7.06 L 89.49 5.94 Z" />
</g>
<g id="#069d6fff">
<path fill="#069d6f" opacity="1.00" d=" M 63.33 17.27 C 71.98 13.31 80.57 9.16 89.60 6.14 L 89.61 7.06 C 90.25 13.59 89.67 20.19 90.65 26.69 C 85.52 26.42 80.30 26.10 75.36 24.57 C 71.33 23.09 67.04 22.62 62.77 22.59 C 62.96 20.81 63.15 19.04 63.33 17.27 Z" />
</g>
<g id="#1967b6ff">
<path fill="#1967b6" opacity="1.00" d=" M 163.15 32.04 C 163.59 25.88 165.99 17.93 172.69 16.09 C 172.96 34.32 173.04 52.57 172.80 70.81 C 171.14 71.11 169.49 71.43 167.84 71.69 C 166.11 71.33 164.72 70.15 163.23 69.29 L 163.31 68.78 C 164.61 56.64 164.87 44.15 163.15 32.04 Z" />
</g>
<g id="#3459adff">
<path fill="#3459ad" opacity="1.00" d=" M 172.69 16.09 C 174.82 16.19 176.96 16.22 179.10 16.17 C 179.20 32.80 179.18 49.43 179.08 66.05 C 179.04 67.95 179.66 69.76 180.42 71.47 C 176.29 72.36 171.96 73.00 167.84 71.69 C 169.49 71.43 171.14 71.11 172.80 70.81 C 173.04 52.57 172.96 34.32 172.69 16.09 Z" />
</g>
<g id="#4d4ba5ff">
<path fill="#4d4ba5" opacity="1.00" d=" M 179.10 16.17 C 182.39 16.65 185.53 17.76 188.62 18.96 L 188.52 20.01 C 187.60 35.90 187.55 51.89 188.44 67.78 C 185.90 69.29 183.21 70.50 180.42 71.47 C 179.66 69.76 179.04 67.95 179.08 66.05 C 179.18 49.43 179.20 32.80 179.10 16.17 Z" />
</g>
<g id="#079752ff">
<path fill="#079752" opacity="1.00" d=" M 44.06 26.65 C 49.80 22.38 56.88 20.28 63.33 17.27 C 63.15 19.04 62.96 20.81 62.77 22.59 C 67.04 22.62 71.33 23.09 75.36 24.57 C 64.83 23.62 54.42 25.13 44.06 26.65 Z" />
</g>
<g id="#6e399bff">
<path fill="#6e399b" opacity="1.00" d=" M 188.52 20.01 L 188.61 19.03 C 191.95 21.19 195.74 23.15 198.04 26.48 C 197.64 36.18 196.87 46.02 198.54 55.64 C 196.07 60.33 193.01 64.91 188.44 67.78 C 187.55 51.89 187.60 35.90 188.52 20.01 Z" />
</g>
<g id="#882d92ff">
<path fill="#882d92" opacity="1.00" d=" M 198.04 26.48 C 204.89 34.40 203.12 47.06 198.54 55.64 C 196.87 46.02 197.64 36.18 198.04 26.48 Z" />
</g>
<g id="#42164c88">
<path fill="#42164c" opacity="0.53" d=" M 211.37 27.38 C 213.74 27.31 216.11 27.30 218.48 27.36 C 218.57 29.45 218.66 31.54 218.75 33.63 C 216.72 33.79 214.69 33.95 212.66 34.11 C 212.73 36.04 212.80 37.96 212.87 39.89 C 214.85 39.77 216.83 39.66 218.82 39.52 C 221.19 44.36 218.68 48.20 213.27 46.99 C 213.41 48.94 213.56 50.89 213.71 52.84 C 215.79 52.91 217.88 52.99 219.96 53.08 C 219.98 55.27 219.99 57.46 219.97 59.66 C 217.79 59.69 215.61 59.72 213.43 59.74 C 213.33 57.66 213.24 55.58 213.15 53.50 C 210.95 53.46 208.75 53.44 206.56 53.40 C 206.27 51.18 206.24 48.93 206.45 46.70 C 208.48 46.60 210.51 46.49 212.55 46.38 C 212.49 44.44 212.44 42.51 212.38 40.58 C 210.29 40.58 208.19 40.58 206.10 40.59 C 205.84 38.44 205.61 36.29 205.41 34.14 C 207.09 34.08 208.77 34.01 210.46 33.97 C 209.12 34.19 207.78 34.41 206.45 34.64 C 206.44 36.50 206.44 38.36 206.45 40.23 C 208.29 40.12 210.14 40.01 211.99 39.90 C 211.85 37.86 211.71 35.82 211.59 33.78 C 211.47 31.65 211.41 29.52 211.37 27.38 M 212.16 27.95 C 212.31 29.74 212.46 31.53 212.62 33.33 C 214.29 33.32 215.96 33.31 217.63 33.30 C 217.62 31.43 217.61 29.56 217.61 27.69 C 215.79 27.78 213.97 27.86 212.16 27.95 M 213.11 40.68 C 213.29 42.45 213.47 44.22 213.65 45.99 C 215.31 45.84 216.97 45.69 218.63 45.54 C 218.63 43.84 218.62 42.15 218.61 40.45 C 216.77 40.52 214.94 40.60 213.11 40.68 M 207.02 47.59 C 207.20 49.38 207.38 51.16 207.57 52.94 C 209.17 52.91 210.78 52.88 212.38 52.85 C 212.49 51.02 212.40 49.19 212.54 47.36 C 210.70 47.43 208.86 47.51 207.02 47.59 M 213.83 53.77 C 213.80 55.60 213.77 57.44 213.75 59.28 C 215.66 59.21 217.56 59.14 219.48 59.07 C 219.43 57.25 219.38 55.43 219.34 53.61 C 217.50 53.66 215.66 53.71 213.83 53.77 Z" />
</g>
<g id="#812a90ff">
<path fill="#812a90" opacity="1.00" d=" M 212.16 27.95 C 213.97 27.86 215.79 27.78 217.61 27.69 C 217.61 29.56 217.62 31.43 217.63 33.30 C 215.96 33.31 214.29 33.32 212.62 33.33 C 212.46 31.53 212.31 29.74 212.16 27.95 Z" />
</g>
<g id="#42aa42ff">
<path fill="#42aa42" opacity="1.00" d=" M 39.27 33.72 C 44.69 30.51 51.17 31.23 57.06 32.48 C 57.60 40.43 57.04 48.40 57.18 56.35 C 51.39 56.94 45.71 58.30 40.13 59.91 C 40.20 51.29 40.50 42.61 39.31 34.04 L 39.27 33.72 Z" />
</g>
<g id="#25a044ff">
<path fill="#25a044" opacity="1.00" d=" M 57.06 32.48 C 61.16 33.16 65.32 33.51 69.48 33.56 C 71.00 37.74 71.12 42.21 71.27 46.60 C 67.06 50.39 63.59 56.65 57.18 56.35 C 57.04 48.40 57.60 40.43 57.06 32.48 Z" />
</g>
<g id="#119944ff">
<path fill="#119944" opacity="1.00" d=" M 69.48 33.56 C 74.12 33.45 78.70 32.81 83.29 32.17 C 79.53 37.18 75.57 42.04 71.27 46.60 C 71.12 42.21 71.00 37.74 69.48 33.56 Z" />
</g>
<g id="#255c96ff">
<path fill="#255c96" opacity="1.00" d=" M 105.43 33.70 C 122.58 29.38 141.71 39.24 148.23 55.64 C 155.11 71.40 149.50 91.59 135.04 101.08 C 120.99 111.08 100.02 109.47 87.88 97.14 C 78.27 88.18 74.24 73.90 77.51 61.20 C 80.71 47.78 91.94 36.67 105.43 33.70 M 106.55 39.75 C 90.95 43.26 79.79 59.59 82.63 75.39 C 84.73 84.18 89.41 93.02 97.81 97.21 C 111.51 106.56 131.73 101.10 140.28 87.32 C 144.92 79.34 147.59 69.21 143.59 60.40 C 139.08 45.36 121.78 35.42 106.55 39.75 Z" />
</g>
<g id="#016db5f1">
<path fill="#016db5" opacity="0.95" d=" M 161.38 56.01 C 161.67 48.02 160.89 39.82 163.15 32.04 C 164.87 44.15 164.61 56.64 163.31 68.78 C 160.68 65.04 161.56 60.29 161.38 56.01 Z" />
</g>
<g id="#7c2990ff">
<path fill="#7c2990" opacity="1.00" d=" M 210.46 33.97 L 211.59 33.78 C 211.71 35.82 211.85 37.86 211.99 39.90 C 210.14 40.01 208.29 40.12 206.45 40.23 C 206.44 38.36 206.44 36.50 206.45 34.64 C 207.78 34.41 209.12 34.19 210.46 33.97 Z" />
</g>
<g id="#5db541ff">
<path fill="#5db541" opacity="1.00" d=" M 22.89 50.39 C 28.29 44.87 33.53 39.17 39.31 34.04 C 40.50 42.61 40.20 51.29 40.13 59.91 C 34.82 61.58 29.73 63.83 24.73 66.24 C 22.30 61.29 23.34 55.68 22.89 50.39 Z" />
</g>
<g id="#365b81ff">
<path fill="#365b81" opacity="1.00" d=" M 106.55 39.75 C 121.78 35.42 139.08 45.36 143.59 60.40 C 147.59 69.21 144.92 79.34 140.28 87.32 C 131.73 101.10 111.51 106.56 97.81 97.21 C 89.41 93.02 84.73 84.18 82.63 75.39 C 79.79 59.59 90.95 43.26 106.55 39.75 M 116.38 46.24 C 112.22 47.71 107.61 48.24 103.77 50.48 C 103.05 50.11 102.34 49.73 101.62 49.36 C 101.47 50.15 101.31 50.94 101.15 51.73 C 94.72 51.95 96.08 60.04 91.35 62.50 C 89.41 63.69 90.86 66.32 90.73 68.18 C 89.44 68.39 88.14 68.53 86.84 68.71 C 88.45 70.87 90.03 73.04 91.60 75.23 C 91.23 76.16 90.87 77.09 90.51 78.02 C 94.52 80.13 96.49 84.36 97.46 88.58 C 100.19 90.73 104.32 89.71 107.13 91.87 C 110.23 93.70 114.01 98.13 117.48 94.43 C 122.93 92.93 127.30 89.63 131.83 86.44 C 135.84 80.99 137.54 74.63 140.86 68.87 C 139.73 65.83 136.84 64.74 133.88 64.26 C 133.18 62.39 132.27 60.59 130.50 59.53 C 130.58 55.95 126.83 52.58 123.26 53.87 C 124.39 49.76 120.14 46.31 116.38 46.24 Z" />
</g>
<g id="#7f2a90ff">
<path fill="#7f2a90" opacity="1.00" d=" M 225.21 39.48 C 227.28 39.44 229.35 39.40 231.42 39.36 C 231.47 41.44 231.52 43.52 231.57 45.60 C 229.49 45.64 227.42 45.68 225.34 45.72 C 225.30 43.64 225.25 41.56 225.21 39.48 Z" />
<path fill="#7f2a90" opacity="1.00" d=" M 244.42 58.19 C 246.49 58.17 248.56 58.17 250.63 58.18 C 250.66 60.20 250.71 62.21 250.76 64.23 C 248.74 64.32 246.71 64.41 244.69 64.50 C 244.59 62.39 244.50 60.29 244.42 58.19 Z" />
</g>
<g id="#812b90ff">
<path fill="#812b90" opacity="1.00" d=" M 213.11 40.68 C 214.94 40.60 216.77 40.52 218.61 40.45 C 218.62 42.15 218.63 43.84 218.63 45.54 C 216.97 45.69 215.31 45.84 213.65 45.99 C 213.47 44.22 213.29 42.45 213.11 40.68 Z" />
</g>
<g id="#54708cff">
<path fill="#54708c" opacity="1.00" d=" M 116.38 46.24 C 120.14 46.31 124.39 49.76 123.26 53.87 C 122.48 54.30 121.71 54.75 120.96 55.24 C 119.43 53.49 117.85 51.28 115.32 51.14 C 107.82 52.86 99.47 55.57 96.57 63.54 C 90.78 70.57 96.81 78.93 101.26 84.76 C 108.04 89.55 118.14 90.46 124.78 84.84 C 130.80 79.89 135.31 69.97 129.50 63.22 C 129.83 61.99 130.18 60.76 130.50 59.53 C 132.27 60.59 133.18 62.39 133.88 64.26 C 136.84 64.74 139.73 65.83 140.86 68.87 C 137.54 74.63 135.84 80.99 131.83 86.44 C 127.30 89.63 122.93 92.93 117.48 94.43 C 114.01 98.13 110.23 93.70 107.13 91.87 C 104.32 89.71 100.19 90.73 97.46 88.58 C 96.49 84.36 94.52 80.13 90.51 78.02 C 90.87 77.09 91.23 76.16 91.60 75.23 C 90.03 73.04 88.45 70.87 86.84 68.71 C 88.14 68.53 89.44 68.39 90.73 68.18 C 90.86 66.32 89.41 63.69 91.35 62.50 C 96.08 60.04 94.72 51.95 101.15 51.73 C 101.31 50.94 101.47 50.15 101.62 49.36 C 102.34 49.73 103.05 50.11 103.77 50.48 C 107.61 48.24 112.22 47.71 116.38 46.24 Z" />
</g>
<g id="#7e2a90ff">
<path fill="#7e2a90" opacity="1.00" d=" M 232.23 46.32 C 234.26 46.28 236.29 46.23 238.32 46.17 C 238.44 48.17 238.44 50.16 238.56 52.16 C 234.15 51.21 231.07 54.38 232.54 58.75 C 230.47 58.81 228.39 58.88 226.32 58.93 C 226.28 56.89 226.24 54.86 226.20 52.82 C 230.82 54.10 233.51 50.70 232.23 46.32 Z" />
<path fill="#7e2a90" opacity="1.00" d=" M 213.83 53.77 C 215.66 53.71 217.50 53.66 219.34 53.61 C 219.38 55.43 219.43 57.25 219.48 59.07 C 217.56 59.14 215.66 59.21 213.75 59.28 C 213.77 57.44 213.80 55.60 213.83 53.77 Z" />
</g>
<g id="#802a90ff">
<path fill="#802a90" opacity="1.00" d=" M 207.02 47.59 C 208.86 47.51 210.70 47.43 212.54 47.36 C 212.40 49.19 212.49 51.02 212.38 52.85 C 210.78 52.88 209.17 52.91 207.57 52.94 C 207.38 51.16 207.20 49.38 207.02 47.59 Z" />
<path fill="#802a90" opacity="1.00" d=" M 232.29 65.67 C 233.97 65.66 235.66 65.66 237.35 65.67 C 237.35 67.49 237.35 69.31 237.35 71.14 C 235.68 71.23 234.01 71.33 232.34 71.43 C 232.32 69.51 232.30 67.59 232.29 65.67 Z" />
<path fill="#802a90" opacity="1.00" d=" M 207.36 92.85 C 209.02 92.82 210.69 92.79 212.36 92.76 C 212.40 94.61 212.45 96.47 212.49 98.32 C 210.76 98.39 209.04 98.46 207.31 98.53 C 207.32 96.64 207.34 94.74 207.36 92.85 Z" />
</g>
<g id="#718ba1ff">
<path fill="#718ba1" opacity="1.00" d=" M 96.57 63.54 C 99.47 55.57 107.82 52.86 115.32 51.14 C 117.85 51.28 119.43 53.49 120.96 55.24 C 120.28 56.21 119.63 57.21 119.02 58.23 C 118.99 57.71 118.93 56.68 118.90 56.16 C 114.72 55.07 110.50 56.09 106.49 57.34 C 94.92 59.88 94.04 80.44 105.55 83.78 C 111.70 87.08 119.81 87.16 124.99 82.00 C 129.71 77.85 130.41 71.09 129.04 65.28 C 126.30 65.42 123.42 65.72 120.89 64.41 C 123.85 65.08 126.82 64.62 129.50 63.22 C 135.31 69.97 130.80 79.89 124.78 84.84 C 118.14 90.46 108.04 89.55 101.26 84.76 C 96.81 78.93 90.78 70.57 96.57 63.54 Z" />
</g>
<g id="#76bd40ff">
<path fill="#76bd40" opacity="1.00" d=" M 13.18 61.88 C 16.20 57.88 19.39 53.99 22.89 50.39 C 23.34 55.68 22.30 61.29 24.73 66.24 C 21.76 68.05 18.79 69.86 15.79 71.63 C 15.09 68.34 14.23 65.08 13.18 61.88 Z" />
</g>
<g id="#812990ff">
<path fill="#812990" opacity="1.00" d=" M 250.70 51.68 C 252.78 51.61 254.86 51.55 256.94 51.49 C 257.22 53.52 257.29 55.57 257.19 57.61 C 255.12 57.66 253.05 57.72 250.98 57.78 C 250.88 55.74 250.79 53.71 250.70 51.68 Z" />
</g>
<g id="#ffffffff">
<path fill="#ffffff" opacity="1.00" d=" M 120.96 55.24 C 121.71 54.75 122.48 54.30 123.26 53.87 C 126.83 52.58 130.58 55.95 130.50 59.53 C 130.18 60.76 129.83 61.99 129.50 63.22 C 126.82 64.62 123.85 65.08 120.89 64.41 C 119.63 62.59 118.87 60.47 119.02 58.23 C 119.63 57.21 120.28 56.21 120.96 55.24 Z" />
<path fill="#ffffff" opacity="1.00" d=" M 122.50 67.53 C 126.64 65.40 129.84 71.74 125.91 73.85 C 122.14 76.21 118.56 69.69 122.50 67.53 Z" />
</g>
<g id="#000000ff">
<path fill="#000000" opacity="1.00" d=" M 106.49 57.34 C 110.50 56.09 114.72 55.07 118.90 56.16 C 118.93 56.68 118.99 57.71 119.02 58.23 C 118.87 60.47 119.63 62.59 120.89 64.41 C 123.42 65.72 126.30 65.42 129.04 65.28 C 130.41 71.09 129.71 77.85 124.99 82.00 C 119.81 87.16 111.70 87.08 105.55 83.78 C 96.62 77.39 97.33 63.18 106.49 57.34 M 122.50 67.53 C 118.56 69.69 122.14 76.21 125.91 73.85 C 129.84 71.74 126.64 65.40 122.50 67.53 Z" />
</g>
<g id="#8297afff">
<path fill="#8297af" opacity="1.00" d=" M 105.55 83.78 C 94.04 80.44 94.92 59.88 106.49 57.34 C 97.33 63.18 96.62 77.39 105.55 83.78 Z" />
</g>
<g id="#86c540ff">
<path fill="#86c540" opacity="1.00" d=" M 3.09 78.89 C 4.64 72.35 9.34 67.20 13.18 61.88 C 14.23 65.08 15.09 68.34 15.79 71.63 C 11.64 74.13 8.08 78.20 3.09 78.89 Z" />
</g>
<g id="#fbbd36ff">
<path fill="#fbbd36" opacity="1.00" d=" M 55.88 64.22 C 59.78 63.32 61.68 67.85 62.11 70.96 C 63.29 79.62 62.10 88.38 60.83 96.96 C 60.22 104.36 61.34 111.89 59.84 119.21 C 59.36 121.97 57.33 125.39 54.04 124.71 C 48.83 123.87 44.26 121.00 39.66 118.58 C 42.74 103.18 39.98 86.93 41.28 71.22 L 41.29 70.94 C 46.20 68.82 50.59 65.35 55.88 64.22 Z" />
</g>
<g id="#7c2a90ff">
<path fill="#7c2a90" opacity="1.00" d=" M 218.27 65.60 C 220.29 65.64 222.31 65.60 224.32 65.73 C 224.40 67.68 224.50 69.62 224.60 71.57 C 222.52 71.72 220.43 71.79 218.35 71.87 C 218.32 69.78 218.29 67.69 218.27 65.60 Z" />
</g>
<g id="#44174f8d">
<path fill="#44174f" opacity="0.55" d=" M 231.20 65.18 C 233.47 65.10 235.75 65.06 238.04 65.05 C 238.20 66.97 238.36 68.88 238.53 70.80 C 240.60 70.75 242.66 70.70 244.73 70.65 C 244.90 72.95 244.98 75.27 244.99 77.58 C 242.93 77.70 240.86 77.82 238.80 77.94 C 238.69 80.01 238.58 82.08 238.47 84.14 C 238.40 82.03 238.33 79.91 238.28 77.80 C 238.23 75.81 238.17 73.83 238.12 71.85 C 235.87 71.80 233.63 71.75 231.38 71.70 C 231.31 69.53 231.24 67.35 231.20 65.18 M 232.29 65.67 C 232.30 67.59 232.32 69.51 232.34 71.43 C 234.01 71.33 235.68 71.23 237.35 71.14 C 237.35 69.31 237.35 67.49 237.35 65.67 C 235.66 65.66 233.97 65.66 232.29 65.67 M 238.73 71.89 C 238.77 73.67 238.81 75.45 238.86 77.24 C 240.69 77.20 242.52 77.17 244.36 77.13 C 244.37 75.34 244.39 73.55 244.40 71.77 C 242.51 71.81 240.62 71.85 238.73 71.89 Z" />
</g>
<g id="#842b91ff">
<path fill="#842b91" opacity="1.00" d=" M 251.26 64.70 C 253.34 64.62 255.41 64.55 257.50 64.48 C 257.61 66.52 257.72 68.55 257.84 70.59 C 255.70 70.68 253.56 70.75 251.42 70.81 C 251.37 68.77 251.32 66.74 251.26 64.70 Z" />
</g>
<g id="#fcd02dff">
<path fill="#fcd02d" opacity="1.00" d=" M 21.79 79.70 C 28.42 77.18 34.87 74.23 41.28 71.22 C 39.98 86.93 42.74 103.18 39.66 118.58 C 33.66 115.13 27.81 111.42 21.82 107.93 L 21.83 107.67 C 22.43 98.35 21.14 89.03 21.79 79.70 Z" />
</g>
<g id="#7d2a91ff">
<path fill="#7d2a91" opacity="1.00" d=" M 212.33 72.53 C 214.41 72.47 216.49 72.42 218.58 72.36 C 218.60 74.41 218.65 76.45 218.70 78.50 C 216.77 78.62 214.78 78.50 212.91 79.06 C 212.34 81.01 212.53 83.05 212.57 85.05 C 210.46 85.32 208.32 85.38 206.20 85.41 C 206.21 83.38 206.22 81.36 206.22 79.33 C 208.15 79.27 210.12 79.33 212.02 78.89 C 212.72 76.83 212.35 74.65 212.33 72.53 Z" />
</g>
<g id="#7d2991ff">
<path fill="#7d2991" opacity="1.00" d=" M 238.73 71.89 C 240.62 71.85 242.51 71.81 244.40 71.77 C 244.39 73.55 244.37 75.34 244.36 77.13 C 242.52 77.17 240.69 77.20 238.86 77.24 C 238.81 75.45 238.77 73.67 238.73 71.89 Z" />
</g>
<g id="#a5257aff">
<path fill="#a5257a" opacity="1.00" d=" M 183.60 75.22 C 189.42 75.01 197.02 75.21 200.43 80.79 C 194.15 87.55 196.48 101.91 185.10 103.07 C 184.25 93.84 186.86 84.06 183.60 75.22 Z" />
</g>
<g id="#b82365ff">
<path fill="#b82365" opacity="1.00" d=" M 175.42 77.26 C 178.16 76.65 180.89 75.98 183.60 75.22 C 186.86 84.06 184.25 93.84 185.10 103.07 C 181.72 103.35 178.34 103.60 174.95 103.70 C 174.95 94.89 174.57 86.05 175.42 77.26 Z" />
</g>
<g id="#cd1f4bff">
<path fill="#cd1f4b" opacity="1.00" d=" M 160.58 92.40 C 163.03 85.31 166.98 77.94 175.42 77.26 C 174.57 86.05 174.95 94.89 174.95 103.70 C 170.38 103.88 165.82 104.21 161.25 104.31 C 161.28 100.33 160.94 96.36 160.58 92.40 Z" />
</g>
<g id="#7c2a91ff">
<path fill="#7c2a91" opacity="1.00" d=" M 232.29 77.83 C 234.29 77.81 236.28 77.79 238.28 77.80 C 238.33 79.91 238.40 82.03 238.47 84.14 C 236.35 84.21 234.26 84.03 232.17 83.81 C 232.22 81.81 232.25 79.82 232.29 77.83 Z" />
</g>
<g id="#7b2a90ff">
<path fill="#7b2a90" opacity="1.00" d=" M 219.05 78.98 C 221.06 78.89 223.07 78.82 225.08 78.75 C 225.05 80.85 225.01 82.96 225.05 85.07 C 223.12 85.11 221.19 85.15 219.26 85.20 C 219.17 83.12 219.10 81.05 219.05 78.98 Z" />
</g>
<g id="#270d2e53">
<path fill="#270d2e" opacity="0.33" d=" M 225.08 78.75 C 225.41 80.54 225.72 82.34 226.04 84.14 C 228.26 84.20 230.48 84.27 232.71 84.34 C 232.72 86.43 232.88 88.55 232.56 90.64 C 231.11 92.63 228.07 91.51 225.96 91.95 C 225.53 89.68 225.10 87.39 225.05 85.07 C 225.01 82.96 225.05 80.85 225.08 78.75 M 226.08 85.14 C 226.04 87.01 226.01 88.88 225.98 90.75 C 227.99 90.72 230.00 90.67 232.02 90.62 C 231.94 88.78 231.86 86.95 231.80 85.12 C 229.89 85.13 227.98 85.14 226.08 85.14 Z" />
</g>
<g id="#fde225ff">
<path fill="#fde225" opacity="1.00" d=" M 0.46 89.93 C 4.14 82.46 14.99 83.32 21.79 79.70 C 21.14 89.03 22.43 98.35 21.83 107.67 C 14.22 102.69 4.26 98.68 0.46 89.93 Z" />
</g>
<g id="#45174f8d">
<path fill="#45174f" opacity="0.55" d=" M 199.79 86.15 C 201.99 85.71 204.23 85.61 206.43 86.04 C 206.43 88.14 206.44 90.24 206.46 92.34 C 208.71 92.31 210.97 92.29 213.22 92.26 C 213.40 94.50 213.45 96.76 213.35 99.01 C 211.04 99.01 208.74 98.98 206.44 98.93 C 206.33 96.70 206.23 94.47 206.11 92.24 C 206.01 90.38 205.90 88.51 205.80 86.65 C 203.80 86.49 201.79 86.33 199.79 86.15 M 207.36 92.85 C 207.34 94.74 207.32 96.64 207.31 98.53 C 209.04 98.46 210.76 98.39 212.49 98.32 C 212.45 96.47 212.40 94.61 212.36 92.76 C 210.69 92.79 209.02 92.82 207.36 92.85 Z" />
</g>
<g id="#812a92ff">
<path fill="#812a92" opacity="1.00" d=" M 226.08 85.14 C 227.98 85.14 229.89 85.13 231.80 85.12 C 231.86 86.95 231.94 88.78 232.02 90.62 C 230.00 90.67 227.99 90.72 225.98 90.75 C 226.01 88.88 226.04 87.01 226.08 85.14 Z" />
</g>
<g id="#7e2b92ff">
<path fill="#7e2b92" opacity="1.00" d=" M 212.54 85.66 C 214.64 85.73 216.75 85.56 218.85 85.66 C 220.86 90.73 217.70 92.83 212.91 91.83 C 212.72 89.78 212.68 87.72 212.54 85.66 Z" />
</g>
<g id="#822b92ff">
<path fill="#822b92" opacity="1.00" d=" M 199.79 86.15 C 201.79 86.33 203.80 86.49 205.80 86.65 C 205.90 88.51 206.01 90.38 206.11 92.24 C 204.11 92.32 202.11 92.38 200.11 92.43 C 200.00 90.34 199.90 88.24 199.79 86.15 Z" />
</g>
<g id="#e21d32ff">
<path fill="#e21d32" opacity="1.00" d=" M 147.94 102.18 C 152.33 99.16 156.89 96.32 160.58 92.40 C 160.94 96.36 161.28 100.33 161.25 104.31 C 156.84 103.99 151.50 105.50 147.94 102.18 Z" />
</g>
<g id="#fba639ff">
<path fill="#fba639" opacity="1.00" d=" M 66.79 108.99 C 67.11 106.69 66.01 102.97 68.93 102.02 C 73.45 103.38 76.38 107.43 79.93 110.30 C 76.55 117.01 78.05 124.69 77.98 131.88 C 79.37 132.72 80.75 133.56 82.17 134.35 C 81.35 134.38 79.70 134.43 78.88 134.46 C 73.85 134.42 67.38 134.00 64.66 129.03 C 64.68 122.32 67.13 115.77 66.79 108.99 Z" />
</g>
<g id="#ef2823ff">
<path fill="#ef2823" opacity="1.00" d=" M 166.11 111.43 C 174.52 110.51 182.59 107.74 190.95 106.63 C 184.72 112.55 176.10 115.05 168.68 119.17 C 168.46 116.92 168.24 114.67 168.03 112.43 C 167.55 112.18 166.59 111.68 166.11 111.43 Z" />
</g>
<g id="#f89233ff">
<path fill="#f89233" opacity="1.00" d=" M 79.93 110.30 C 82.96 113.01 85.99 115.71 89.19 118.22 C 85.18 122.44 86.73 129.38 88.66 134.29 C 86.49 134.31 84.33 134.34 82.17 134.35 C 80.75 133.56 79.37 132.72 77.98 131.88 C 78.05 124.69 76.55 117.01 79.93 110.30 Z" />
</g>
<g id="#ef3a24ff">
<path fill="#ef3a24" opacity="1.00" d=" M 105.99 114.16 C 125.88 110.77 146.18 113.94 166.11 111.43 C 166.59 111.68 167.55 112.18 168.03 112.43 C 168.24 114.67 168.46 116.92 168.68 119.17 C 157.24 124.27 146.19 130.72 133.94 133.68 C 131.49 127.35 132.73 120.55 133.48 114.04 C 124.32 113.56 115.14 113.66 105.99 114.16 Z" />
</g>
<g id="#f14b24ff">
<path fill="#f14b24" opacity="1.00" d=" M 99.51 116.87 C 100.99 114.76 103.60 114.32 105.99 114.16 C 115.14 113.66 124.32 113.56 133.48 114.04 C 132.73 120.55 131.49 127.35 133.94 133.68 L 134.07 134.13 C 130.25 134.25 124.49 136.15 122.40 131.71 C 118.32 122.49 106.63 122.65 99.51 116.87 Z" />
</g>
<g id="#f67f2eff">
<path fill="#f67f2e" opacity="1.00" d=" M 88.66 134.29 C 86.73 129.38 85.18 122.44 89.19 118.22 C 93.80 121.86 98.85 124.86 103.78 128.01 C 103.60 129.93 103.36 131.84 103.11 133.75 C 98.30 134.07 93.48 134.25 88.66 134.29 Z" />
</g>
<g id="#f36627ff">
<path fill="#f36627" opacity="1.00" d=" M 103.11 133.75 C 103.36 131.84 103.60 129.93 103.78 128.01 C 107.43 129.55 110.88 131.55 113.98 134.01 C 111.23 137.12 106.63 135.21 103.00 135.45 C 95.01 134.22 86.93 134.77 78.88 134.46 C 79.70 134.43 81.35 134.38 82.17 134.35 C 84.33 134.34 86.49 134.31 88.66 134.29 C 93.48 134.25 98.30 134.07 103.11 133.75 Z" />
</g>
</svg>
