<?xml version="1.0" standalone="no"?><!DOCTYPE svg PUBLIC "-//W3C//DTD SVG 1.1//EN"
        "http://www.w3.org/Graphics/SVG/1.1/DTD/svg11.dtd">
<svg class="icon" width="200px" height="200.00px" viewBox="0 0 1024 1024" version="1.1"
     xmlns="http://www.w3.org/2000/svg">
    <path d="M684.8 346.24a48 48 0 1 0-57.92 76.48 110.72 110.72 0 0 1 0 177.92 48 48 0 1 0 57.92 76.48 206.72 206.72 0 0 0 0-331.2z m128-184a48 48 0 1 0-56.96 77.76 333.76 333.76 0 0 1 0 544 48 48 0 0 0 56 77.76 429.76 429.76 0 0 0 0-699.52z m-307.52-18.88a64 64 0 0 0-69.76 13.76L314.56 277.44A309.12 309.12 0 0 1 96 368a64 64 0 0 0-64 64v160a64 64 0 0 0 64 64 308.8 308.8 0 0 1 218.56 90.56l120.32 120.32A64 64 0 0 0 544 821.44V202.56a64 64 0 0 0-39.36-59.2z"
          fill="#ffffff"/>
</svg>